ISO-10303-21;
HEADER;
FILE_DESCRIPTION (( 'STEP AP214' ),
    '1' );
FILE_NAME ('LQM21PN2R2MCHD.STEP',
    '2020-01-17T10:05:50',
    ( '' ),
    ( '' ),
    'SwSTEP 2.0',
    'SolidWorks 2017',
    '' );
FILE_SCHEMA (( 'AUTOMOTIVE_DESIGN' ));
ENDSEC;

DATA;
#1 = VECTOR ( 'NONE', #1128, 1000.000000000000000 ) ;
#2 = DIRECTION ( 'NONE',  ( 0.0000000000000000000, 1.000000000000000000, 0.0000000000000000000 ) ) ;
#3 = DIRECTION ( 'NONE',  ( 0.0000000000000000000, 0.0000000000000000000, -1.000000000000000000 ) ) ;
#4 = CARTESIAN_POINT ( 'NONE',  ( -0.5000000000000001100, 0.05000000000000002400, 0.5749999999999996200 ) ) ;
#5 = EDGE_CURVE ( 'NONE', #953, #282, #1195, .T. ) ;
#6 = ADVANCED_FACE ( 'NONE', ( #361 ), #123, .F. ) ;
#7 = PLANE ( 'NONE',  #1048 ) ;
#8 = UNCERTAINTY_MEASURE_WITH_UNIT (LENGTH_MEASURE( 1.000000000000000100E-005 ), #782, 'distance_accuracy_value', 'NONE');
#9 = EDGE_LOOP ( 'NONE', ( #774, #477, #555, #1150, #211, #308, #461, #1180 ) ) ;
#10 = CARTESIAN_POINT ( 'NONE',  ( 500000.0000000000600, 0.05000000000000002400, -0.6083333333767014800 ) ) ;
#11 = CIRCLE ( 'NONE', #1005, 0.05000000000000002400 ) ;
#12 = DIRECTION ( 'NONE',  ( 1.000000000000000000, 0.0000000000000000000, 1.734723475976811800E-016 ) ) ;
#13 = ADVANCED_FACE ( 'NONE', ( #759 ), #355, .F. ) ;
#14 = LINE ( 'NONE', #490, #176 ) ;
#15 = PLANE ( 'NONE',  #183 ) ;
#16 = CARTESIAN_POINT ( 'NONE',  ( 0.9500000000000001800, 0.05000000000000002400, -0.5750000000000001800 ) ) ;
#17 = CARTESIAN_POINT ( 'NONE',  ( -0.5000000000000000000, 0.0000000000000000000, 0.5749999999999994000 ) ) ;
#18 = AXIS2_PLACEMENT_3D ( 'NONE', #178, #1165, #1058 ) ;
#19 = CLOSED_SHELL ( 'NONE', ( #1213, #1003, #913, #912, #228, #800, #995, #1111, #613, #446 ) ) ;
#20 = EDGE_CURVE ( 'NONE', #345, #824, #1082, .T. ) ;
#21 = VERTEX_POINT ( 'NONE', #253 ) ;
#22 = LINE ( 'NONE', #325, #169 ) ;
#23 = CYLINDRICAL_SURFACE ( 'NONE', #590, 0.05000000000000002400 ) ;
#24 = EDGE_CURVE ( 'NONE', #21, #966, #137, .T. ) ;
#25 = EDGE_CURVE ( 'NONE', #901, #824, #82, .T. ) ;
#26 = ORIENTED_EDGE ( 'NONE', *, *, #877, .F. ) ;
#27 = ORIENTED_EDGE ( 'NONE', *, *, #1138, .T. ) ;
#28 = VERTEX_POINT ( 'NONE', #739 ) ;
#29 = DIRECTION ( 'NONE',  ( 0.0000000000000000000, 0.0000000000000000000, 1.000000000000000000 ) ) ;
#30 = DIRECTION ( 'NONE',  ( 1.000000000000000000, 0.0000000000000000000, 0.0000000000000000000 ) ) ;
#31 = CARTESIAN_POINT ( 'NONE',  ( -0.9499999999999999600, 0.0000000000000000000, 0.5749999999999995100 ) ) ;
#32 = ORIENTED_EDGE ( 'NONE', *, *, #551, .F. ) ;
#33 = DIRECTION ( 'NONE',  ( 0.0000000000000000000, -1.000000000000000000, -0.0000000000000000000 ) ) ;
#34 = SPHERICAL_SURFACE ( 'NONE', #391, 0.05000000000000000300 ) ;
#35 = CYLINDRICAL_SURFACE ( 'NONE', #508, 0.03333333333333334700 ) ;
#36 = LINE ( 'NONE', #229, #1245 ) ;
#37 = CARTESIAN_POINT ( 'NONE',  ( 0.5000000000000002200, 0.5500000000000000400, -0.6250000000000002200 ) ) ;
#38 = CARTESIAN_POINT ( 'NONE',  ( -0.5000000000000002200, 0.0000000000000000000, -0.6250000000000002200 ) ) ;
#39 = CARTESIAN_POINT ( 'NONE',  ( 0.4999999999881765700, 0.05000000000000002400, 0.5749999999999996200 ) ) ;
#40 = ORIENTED_EDGE ( 'NONE', *, *, #84, .T. ) ;
#41 = STYLED_ITEM ( 'NONE', ( #168 ), #536 ) ;
#42 = FACE_OUTER_BOUND ( 'NONE', #1052, .T. ) ;
#43 = VECTOR ( 'NONE', #257, 1000.000000000000000 ) ;
#44 = ADVANCED_FACE ( 'NONE', ( #505 ), #822, .T. ) ;
#45 = CARTESIAN_POINT ( 'NONE',  ( 500000.0000000000600, 0.5000000000000000000, 0.6083333332899649700 ) ) ;
#46 = DIRECTION ( 'NONE',  ( 1.000000000000000000, 0.0000000000000000000, 0.0000000000000000000 ) ) ;
#47 = EDGE_LOOP ( 'NONE', ( #964, #98, #746 ) ) ;
#48 = ORIENTED_EDGE ( 'NONE', *, *, #929, .T. ) ;
#49 = CYLINDRICAL_SURFACE ( 'NONE', #642, 0.05000000000000002400 ) ;
#50 = DIRECTION ( 'NONE',  ( 0.0000000000000000000, 1.000000000000000000, 0.0000000000000000000 ) ) ;
#51 = DIRECTION ( 'NONE',  ( 0.0000000000000000000, 1.000000000000000000, 0.0000000000000000000 ) ) ;
#52 = ORIENTED_EDGE ( 'NONE', *, *, #744, .F. ) ;
#53 = ORIENTED_EDGE ( 'NONE', *, *, #916, .T. ) ;
#54 = DIRECTION ( 'NONE',  ( 0.0000000000000000000, 0.0000000000000000000, 1.000000000000000000 ) ) ;
#55 = ORIENTED_EDGE ( 'NONE', *, *, #943, .T. ) ;
#56 = AXIS2_PLACEMENT_3D ( 'NONE', #713, #1191, #111 ) ;
#57 = CARTESIAN_POINT ( 'NONE',  ( -0.5000000000000001100, 0.05000000000000002400, 0.6083333333333330600 ) ) ;
#58 = EDGE_CURVE ( 'NONE', #732, #604, #1117, .T. ) ;
#59 = ORIENTED_EDGE ( 'NONE', *, *, #699, .F. ) ;
#60 = LINE ( 'NONE', #1110, #1 ) ;
#61 = DIRECTION ( 'NONE',  ( 0.0000000000000000000, 0.0000000000000000000, 1.000000000000000000 ) ) ;
#62 = EDGE_CURVE ( 'NONE', #292, #901, #733, .T. ) ;
#63 = FACE_OUTER_BOUND ( 'NONE', #47, .T. ) ;
#64 = CARTESIAN_POINT ( 'NONE',  ( 0.9499999999999999600, 0.5000000000000000000, 0.5749999999999995100 ) ) ;
#65 = EDGE_LOOP ( 'NONE', ( #449, #189, #1027, #207, #313, #958, #1131, #721 ) ) ;
#66 = CIRCLE ( 'NONE', #760, 0.05000000000000002400 ) ;
#67 = EDGE_CURVE ( 'NONE', #670, #231, #812, .T. ) ;
#68 = ORIENTED_EDGE ( 'NONE', *, *, #20, .T. ) ;
#69 = CARTESIAN_POINT ( 'NONE',  ( -0.9500000000000000700, 0.0000000000000000000, 1.647987302177967200E-016 ) ) ;
#70 = ADVANCED_FACE ( 'NONE', ( #835 ), #286, .T. ) ;
#71 = CARTESIAN_POINT ( 'NONE',  ( -0.5000000000000001100, 0.5000000000000000000, 0.5749999999999996200 ) ) ;
#72 = EDGE_LOOP ( 'NONE', ( #269, #187, #1142 ) ) ;
#73 = CARTESIAN_POINT ( 'NONE',  ( 500000.0000000000600, 0.01666666666666667300, 0.5749999999566314200 ) ) ;
#74 = VERTEX_POINT ( 'NONE', #190 ) ;
#75 = LINE ( 'NONE', #420, #478 ) ;
#76 = STYLED_ITEM ( 'NONE', ( #928 ), #655 ) ;
#77 = CARTESIAN_POINT ( 'NONE',  ( 0.0000000000000000000, 0.0000000000000000000, -0.5750000000000001800 ) ) ;
#78 = DIRECTION ( 'NONE',  ( -1.000000000000000000, 0.0000000000000000000, -0.0000000000000000000 ) ) ;
#79 = ORIENTED_EDGE ( 'NONE', *, *, #482, .T. ) ;
#80 = DIRECTION ( 'NONE',  ( -0.0000000000000000000, -1.000000000000000000, -0.0000000000000000000 ) ) ;
#81 = ORIENTED_EDGE ( 'NONE', *, *, #748, .F. ) ;
#82 = CIRCLE ( 'NONE', #445, 0.05000000000000002400 ) ;
#83 = EDGE_CURVE ( 'NONE', #861, #1231, #394, .T. ) ;
#84 = EDGE_CURVE ( 'NONE', #824, #1166, #14, .T. ) ;
#85 = PLANE ( 'NONE',  #1026 ) ;
#86 = DIRECTION ( 'NONE',  ( 0.0000000000000000000, 0.0000000000000000000, 1.000000000000000000 ) ) ;
#87 = ORIENTED_EDGE ( 'NONE', *, *, #980, .F. ) ;
#88 = LINE ( 'NONE', #305, #893 ) ;
#89 = CARTESIAN_POINT ( 'NONE',  ( 500000.0000000000600, 0.5333333333333333300, -0.5750000000433681500 ) ) ;
#90 = VECTOR ( 'NONE', #781, 1000.000000000000000 ) ;
#91 = DIRECTION ( 'NONE',  ( -1.000000000000000000, 0.0000000000000000000, 0.0000000000000000000 ) ) ;
#92 = DIRECTION ( 'NONE',  ( 0.0000000000000000000, 0.0000000000000000000, 1.000000000000000000 ) ) ;
#93 = CARTESIAN_POINT ( 'NONE',  ( 0.9499999999999999600, 0.05000000000000002400, 0.5749999999999995100 ) ) ;
#94 = CLOSED_SHELL ( 'NONE', ( #146, #1177, #521, #553, #1012, #1112, #338, #714, #382, #1004, #322, #718, #784, #70, #395, #1028, #1189, #198 ) ) ;
#95 = DIRECTION ( 'NONE',  ( 0.0000000000000000000, -1.000000000000000000, 0.0000000000000000000 ) ) ;
#96 = CARTESIAN_POINT ( 'NONE',  ( -1.000000000000000200, 0.5500000000000000400, -0.5750000000000001800 ) ) ;
#97 = VECTOR ( 'NONE', #488, 1000.000000000000000 ) ;
#98 = ORIENTED_EDGE ( 'NONE', *, *, #729, .T. ) ;
#99 = CARTESIAN_POINT ( 'NONE',  ( 0.9499999999999999600, 0.5000000000000000000, 0.5749999999999995100 ) ) ;
#100 = DIRECTION ( 'NONE',  ( -0.0000000000000000000, -0.0000000000000000000, -1.000000000000000000 ) ) ;
#101 = PRESENTATION_LAYER_ASSIGNMENT (  '', '', ( #76 ) ) ;
#102 = DIRECTION ( 'NONE',  ( -0.0000000000000000000, 1.000000000000000000, -0.0000000000000000000 ) ) ;
#103 = CARTESIAN_POINT ( 'NONE',  ( 0.9499999999999999600, 0.5500000000000000400, 0.6249999999999995600 ) ) ;
#104 = ORIENTED_EDGE ( 'NONE', *, *, #929, .F. ) ;
#105 = VECTOR ( 'NONE', #668, 1000.000000000000000 ) ;
#106 = ORIENTED_EDGE ( 'NONE', *, *, #1033, .T. ) ;
#107 = FACE_OUTER_BOUND ( 'NONE', #134, .T. ) ;
#108 = DIRECTION ( 'NONE',  ( 0.0000000000000000000, 1.000000000000000000, 0.0000000000000000000 ) ) ;
#109 = SPHERICAL_SURFACE ( 'NONE', #1155, 0.05000000000000000300 ) ;
#110 = VECTOR ( 'NONE', #479, 1000.000000000000000 ) ;
#111 = DIRECTION ( 'NONE',  ( 0.0000000000000000000, -0.0000000000000000000, 1.000000000000000000 ) ) ;
#112 = DIRECTION ( 'NONE',  ( -1.000000000000000000, 0.0000000000000000000, 0.0000000000000000000 ) ) ;
#113 = ADVANCED_FACE ( 'NONE', ( #377 ), #85, .F. ) ;
#114 = EDGE_CURVE ( 'NONE', #1129, #667, #392, .T. ) ;
#115 = ORIENTED_EDGE ( 'NONE', *, *, #217, .T. ) ;
#116 = DIRECTION ( 'NONE',  ( 0.0000000000000000000, 1.000000000000000000, 0.0000000000000000000 ) ) ;
#117 = CARTESIAN_POINT ( 'NONE',  ( -0.9499999999999999600, 0.5500000000000000400, 0.5749999999999995100 ) ) ;
#118 = VERTEX_POINT ( 'NONE', #681 ) ;
#119 = EDGE_LOOP ( 'NONE', ( #518, #359, #363, #177 ) ) ;
#120 = ADVANCED_FACE ( 'NONE', ( #1081 ), #657, .T. ) ;
#121 = ORIENTED_EDGE ( 'NONE', *, *, #457, .T. ) ;
#122 = CARTESIAN_POINT ( 'NONE',  ( 500000.0000000000600, 0.05000000000000002400, 0.5749999999566315400 ) ) ;
#123 = PLANE ( 'NONE',  #603 ) ;
#124 = AXIS2_PLACEMENT_3D ( 'NONE', #256, #944, #454 ) ;
#125 = ORIENTED_EDGE ( 'NONE', *, *, #1255, .F. ) ;
#126 = LINE ( 'NONE', #662, #494 ) ;
#127 = CARTESIAN_POINT ( 'NONE',  ( -0.5000000000000002200, 0.5000000000000000000, -0.6250000000000002200 ) ) ;
#128 = DIRECTION ( 'NONE',  ( 1.000000000000000000, 0.0000000000000000000, 1.734723475976807300E-016 ) ) ;
#129 = FACE_OUTER_BOUND ( 'NONE', #847, .T. ) ;
#130 = EDGE_CURVE ( 'NONE', #861, #953, #1239, .T. ) ;
#131 = DIRECTION ( 'NONE',  ( 0.0000000000000000000, -1.000000000000000000, 0.0000000000000000000 ) ) ;
#132 = CARTESIAN_POINT ( 'NONE',  ( 0.0000000000000000000, 0.5000000000000000000, -0.5750000000000001800 ) ) ;
#133 = EDGE_CURVE ( 'NONE', #1231, #266, #135, .T. ) ;
#134 = EDGE_LOOP ( 'NONE', ( #1123, #335, #417, #1266 ) ) ;
#135 = CIRCLE ( 'NONE', #1248, 0.05000000000000002400 ) ;
#136 = DIRECTION ( 'NONE',  ( -8.673617379884036700E-017, 0.0000000000000000000, -1.000000000000000000 ) ) ;
#137 = LINE ( 'NONE', #937, #244 ) ;
#138 = EDGE_CURVE ( 'NONE', #1174, #227, #1143, .T. ) ;
#139 = ORIENTED_EDGE ( 'NONE', *, *, #980, .T. ) ;
#140 = DIRECTION ( 'NONE',  ( 0.0000000000000000000, 0.0000000000000000000, -1.000000000000000000 ) ) ;
#141 = EDGE_CURVE ( 'NONE', #1144, #643, #360, .T. ) ;
#142 = ORIENTED_EDGE ( 'NONE', *, *, #762, .T. ) ;
#143 = VECTOR ( 'NONE', #332, 1000.000000000000000 ) ;
#144 = DIRECTION ( 'NONE',  ( -1.000000000000000000, 0.0000000000000000000, 1.734723475976807300E-016 ) ) ;
#145 = PLANE ( 'NONE',  #323 ) ;
#146 = ADVANCED_FACE ( 'NONE', ( #209 ), #1068, .F. ) ;
#147 = ORIENTED_EDGE ( 'NONE', *, *, #485, .F. ) ;
#148 = ORIENTED_EDGE ( 'NONE', *, *, #62, .F. ) ;
#149 = EDGE_LOOP ( 'NONE', ( #87, #1158, #1237, #535 ) ) ;
#150 = DIRECTION ( 'NONE',  ( 0.0000000000000000000, 0.0000000000000000000, 1.000000000000000000 ) ) ;
#151 = EDGE_CURVE ( 'NONE', #1144, #1238, #883, .T. ) ;
#152 = AXIS2_PLACEMENT_3D ( 'NONE', #1031, #250, #1141 ) ;
#153 = ORIENTED_EDGE ( 'NONE', *, *, #237, .F. ) ;
#154 = EDGE_CURVE ( 'NONE', #166, #1023, #821, .T. ) ;
#155 = COLOUR_RGB ( '',0.2509803921568627400, 0.2509803921568627400, 0.2509803921568627400 ) ;
#156 = EDGE_CURVE ( 'NONE', #272, #795, #66, .T. ) ;
#157 = CIRCLE ( 'NONE', #194, 0.03333333333333334700 ) ;
#158 = VECTOR ( 'NONE', #843, 1000.000000000000000 ) ;
#159 = PLANE ( 'NONE',  #846 ) ;
#160 = ORIENTED_EDGE ( 'NONE', *, *, #921, .T. ) ;
#161 = DIRECTION ( 'NONE',  ( -1.000000000000000000, 0.0000000000000000000, 0.0000000000000000000 ) ) ;
#162 = DIRECTION ( 'NONE',  ( 1.000000000000000000, 0.0000000000000000000, 0.0000000000000000000 ) ) ;
#163 = ORIENTED_EDGE ( 'NONE', *, *, #436, .F. ) ;
#164 = SURFACE_STYLE_FILL_AREA ( #588 ) ;
#165 = AXIS2_PLACEMENT_3D ( 'NONE', #39, #430, #728 ) ;
#166 = VERTEX_POINT ( 'NONE', #674 ) ;
#167 = CARTESIAN_POINT ( 'NONE',  ( -1.000000000000000200, 0.05000000000000002400, -0.6250000000000002200 ) ) ;
#168 = PRESENTATION_STYLE_ASSIGNMENT (( #481 ) ) ;
#169 = VECTOR ( 'NONE', #814, 1000.000000000000000 ) ;
#170 = AXIS2_PLACEMENT_3D ( 'NONE', #697, #100, #91 ) ;
#171 = DIRECTION ( 'NONE',  ( -1.734723475976807300E-016, 0.0000000000000000000, 1.000000000000000000 ) ) ;
#172 = EDGE_CURVE ( 'NONE', #1166, #469, #533, .T. ) ;
#173 = ORIENTED_EDGE ( 'NONE', *, *, #845, .F. ) ;
#174 = ORIENTED_EDGE ( 'NONE', *, *, #284, .F. ) ;
#175 = EDGE_CURVE ( 'NONE', #21, #1269, #977, .T. ) ;
#176 = VECTOR ( 'NONE', #288, 1000.000000000000000 ) ;
#177 = ORIENTED_EDGE ( 'NONE', *, *, #815, .T. ) ;
#178 = CARTESIAN_POINT ( 'NONE',  ( 0.9500000000000001800, 0.05000000000000000300, -0.5750000000000001800 ) ) ;
#179 = ORIENTED_EDGE ( 'NONE', *, *, #1164, .F. ) ;
#180 = CARTESIAN_POINT ( 'NONE',  ( 0.4999999999881765700, 0.5333333333333333300, -0.5750000001301042200 ) ) ;
#181 = DIRECTION ( 'NONE',  ( 1.000000000000000000, 0.0000000000000000000, 1.734723475976807300E-016 ) ) ;
#182 = FACE_OUTER_BOUND ( 'NONE', #692, .T. ) ;
#183 = AXIS2_PLACEMENT_3D ( 'NONE', #702, #108, #801 ) ;
#184 = SURFACE_STYLE_USAGE ( .BOTH. , #489 ) ;
#185 = DIRECTION ( 'NONE',  ( 0.0000000000000000000, 0.0000000000000000000, 1.000000000000000000 ) ) ;
#186 = DIRECTION ( 'NONE',  ( 0.0000000000000000000, 0.0000000000000000000, 1.000000000000000000 ) ) ;
#187 = ORIENTED_EDGE ( 'NONE', *, *, #587, .T. ) ;
#188 = EDGE_CURVE ( 'NONE', #617, #667, #11, .T. ) ;
#189 = ORIENTED_EDGE ( 'NONE', *, *, #545, .T. ) ;
#190 = CARTESIAN_POINT ( 'NONE',  ( -0.5000000000000001100, 0.01666666666666666600, -0.5749999999999999600 ) ) ;
#191 = AXIS2_PLACEMENT_3D ( 'NONE', #538, #1218, #910 ) ;
#192 = DIRECTION ( 'NONE',  ( -0.0000000000000000000, 1.000000000000000000, 0.0000000000000000000 ) ) ;
#193 = CARTESIAN_POINT ( 'NONE',  ( 0.0000000000000000000, 0.0000000000000000000, 0.0000000000000000000 ) ) ;
#194 = AXIS2_PLACEMENT_3D ( 'NONE', #506, #690, #419 ) ;
#195 = EDGE_CURVE ( 'NONE', #282, #617, #1022, .T. ) ;
#196 = DIRECTION ( 'NONE',  ( 1.734723475976807300E-016, -0.0000000000000000000, -1.000000000000000000 ) ) ;
#197 = CARTESIAN_POINT ( 'NONE',  ( -1.000000000000000200, 0.05000000000000002400, -0.5750000000000001800 ) ) ;
#198 = ADVANCED_FACE ( 'NONE', ( #504 ), #470, .T. ) ;
#199 = VERTEX_POINT ( 'NONE', #610 ) ;
#200 = DIRECTION ( 'NONE',  ( 0.0000000000000000000, 0.0000000000000000000, 1.000000000000000000 ) ) ;
#201 = CIRCLE ( 'NONE', #439, 0.03333333333333334700 ) ;
#202 = LINE ( 'NONE', #909, #925 ) ;
#203 = DIRECTION ( 'NONE',  ( -0.0000000000000000000, 1.000000000000000000, -0.0000000000000000000 ) ) ;
#204 = DIRECTION ( 'NONE',  ( 0.0000000000000000000, 0.0000000000000000000, 1.000000000000000000 ) ) ;
#205 = CARTESIAN_POINT ( 'NONE',  ( -0.5000000000000001100, 0.5000000000000000000, -0.6083333333333333900 ) ) ;
#206 = DIRECTION ( 'NONE',  ( 0.0000000000000000000, 0.0000000000000000000, 1.000000000000000000 ) ) ;
#207 = ORIENTED_EDGE ( 'NONE', *, *, #1009, .T. ) ;
#208 = CARTESIAN_POINT ( 'NONE',  ( 500000.0000000000600, 0.5000000000000000000, -0.5750000000433681500 ) ) ;
#209 = FACE_OUTER_BOUND ( 'NONE', #834, .T. ) ;
#210 = EDGE_LOOP ( 'NONE', ( #441, #1060, #303, #1148 ) ) ;
#211 = ORIENTED_EDGE ( 'NONE', *, *, #945, .T. ) ;
#212 = CARTESIAN_POINT ( 'NONE',  ( -0.9500000000000001800, 0.5500000000000000400, -0.5750000000000001800 ) ) ;
#213 = AXIS2_PLACEMENT_3D ( 'NONE', #208, #994, #1193 ) ;
#214 = ORIENTED_EDGE ( 'NONE', *, *, #1270, .F. ) ;
#215 = DIRECTION ( 'NONE',  ( 0.0000000000000000000, 1.000000000000000000, 0.0000000000000000000 ) ) ;
#216 = ORIENTED_EDGE ( 'NONE', *, *, #1219, .T. ) ;
#217 = EDGE_CURVE ( 'NONE', #492, #1102, #757, .T. ) ;
#218 = CYLINDRICAL_SURFACE ( 'NONE', #719, 0.05000000000000002400 ) ;
#219 = ADVANCED_FACE ( 'NONE', ( #42 ), #796, .T. ) ;
#220 = AXIS2_PLACEMENT_3D ( 'NONE', #358, #1228, #560 ) ;
#221 = CARTESIAN_POINT ( 'NONE',  ( -0.9500000000000001800, 0.5000000000000000000, -0.5750000000000001800 ) ) ;
#222 = EDGE_CURVE ( 'NONE', #1238, #166, #157, .T. ) ;
#223 = ADVANCED_FACE ( 'NONE', ( #243 ), #109, .T. ) ;
#224 = ORIENTED_EDGE ( 'NONE', *, *, #237, .T. ) ;
#225 = CARTESIAN_POINT ( 'NONE',  ( -1.000000000000000000, 0.05000000000000002400, 0.5749999999999995100 ) ) ;
#226 = DIRECTION ( 'NONE',  ( 1.000000000000000000, 0.0000000000000000000, -8.673617379884036700E-017 ) ) ;
#227 = VERTEX_POINT ( 'NONE', #423 ) ;
#228 = ADVANCED_FACE ( 'NONE', ( #1139 ), #1200, .F. ) ;
#229 = CARTESIAN_POINT ( 'NONE',  ( 0.5000000000000002200, 0.5000000000000000000, -0.6250000000000002200 ) ) ;
#230 = ADVANCED_FACE ( 'NONE', ( #371 ), #1095, .T. ) ;
#231 = VERTEX_POINT ( 'NONE', #17 ) ;
#232 = LINE ( 'NONE', #1156, #1182 ) ;
#233 = CARTESIAN_POINT ( 'NONE',  ( -0.9499999999999999600, 0.5500000000000000400, 0.6249999999999995600 ) ) ;
#234 = VECTOR ( 'NONE', #1035, 1000.000000000000000 ) ;
#235 = DIRECTION ( 'NONE',  ( -1.000000000000000000, 0.0000000000000000000, 0.0000000000000000000 ) ) ;
#236 = FACE_OUTER_BOUND ( 'NONE', #1201, .T. ) ;
#237 = EDGE_CURVE ( 'NONE', #1105, #1277, #638, .T. ) ;
#238 = AXIS2_PLACEMENT_3D ( 'NONE', #45, #136, #825 ) ;
#239 = DIRECTION ( 'NONE',  ( 8.673617379884036700E-017, -0.0000000000000000000, 1.000000000000000000 ) ) ;
#240 = ADVANCED_FACE ( 'NONE', ( #874 ), #1169, .T. ) ;
#241 =( GEOMETRIC_REPRESENTATION_CONTEXT ( 3 ) GLOBAL_UNCERTAINTY_ASSIGNED_CONTEXT ( ( #429 ) ) GLOBAL_UNIT_ASSIGNED_CONTEXT ( ( #1163, #1066, #270 ) ) REPRESENTATION_CONTEXT ( 'NONE', 'WORKASPACE' ) );
#242 = VERTEX_POINT ( 'NONE', #31 ) ;
#243 = FACE_OUTER_BOUND ( 'NONE', #809, .T. ) ;
#244 = VECTOR ( 'NONE', #1229, 1000.000000000000000 ) ;
#245 = EDGE_CURVE ( 'NONE', #242, #444, #514, .T. ) ;
#246 = ORIENTED_EDGE ( 'NONE', *, *, #564, .T. ) ;
#247 = ORIENTED_EDGE ( 'NONE', *, *, #660, .T. ) ;
#248 = VECTOR ( 'NONE', #618, 1000.000000000000000 ) ;
#249 = CIRCLE ( 'NONE', #1093, 0.05000000000000002400 ) ;
#250 = DIRECTION ( 'NONE',  ( -0.0000000000000000000, -0.0000000000000000000, 1.000000000000000000 ) ) ;
#251 = PRODUCT_RELATED_PRODUCT_CATEGORY ( 'part', '', ( #789 ) ) ;
#252 = DIRECTION ( 'NONE',  ( 1.000000000000000000, -0.0000000000000000000, -1.734723475976807300E-016 ) ) ;
#253 = CARTESIAN_POINT ( 'NONE',  ( -0.9500000000000001800, 0.05000000000000002400, -0.6250000000000002200 ) ) ;
#254 = VERTEX_POINT ( 'NONE', #1211 ) ;
#255 = ORIENTED_EDGE ( 'NONE', *, *, #1119, .F. ) ;
#256 = CARTESIAN_POINT ( 'NONE',  ( 0.5000000000000002200, 0.5500000000000000400, -0.6250000000000002200 ) ) ;
#257 = DIRECTION ( 'NONE',  ( 1.734723475976807300E-016, -0.0000000000000000000, 1.000000000000000000 ) ) ;
#258 = ORIENTED_EDGE ( 'NONE', *, *, #1050, .F. ) ;
#259 = AXIS2_PLACEMENT_3D ( 'NONE', #212, #531, #715 ) ;
#260 = SHAPE_DEFINITION_REPRESENTATION ( #727, #899 ) ;
#261 = CARTESIAN_POINT ( 'NONE',  ( 500000.0000000000600, 0.5000000000000000000, 0.5749999999566315400 ) ) ;
#262 = CYLINDRICAL_SURFACE ( 'NONE', #275, 0.05000000000000002400 ) ;
#263 = FACE_OUTER_BOUND ( 'NONE', #936, .T. ) ;
#264 = VECTOR ( 'NONE', #161, 1000.000000000000000 ) ;
#265 = PLANE ( 'NONE',  #124 ) ;
#266 = VERTEX_POINT ( 'NONE', #428 ) ;
#267 = SURFACE_SIDE_STYLE ('',( #605 ) ) ;
#268 = VECTOR ( 'NONE', #904, 1000.000000000000000 ) ;
#269 = ORIENTED_EDGE ( 'NONE', *, *, #175, .T. ) ;
#270 =( NAMED_UNIT ( * ) SI_UNIT ( $, .STERADIAN. ) SOLID_ANGLE_UNIT ( ) );
#271 = DIRECTION ( 'NONE',  ( 0.0000000000000000000, -1.000000000000000000, 0.0000000000000000000 ) ) ;
#272 = VERTEX_POINT ( 'NONE', #717 ) ;
#273 = ORIENTED_EDGE ( 'NONE', *, *, #1096, .T. ) ;
#274 = CIRCLE ( 'NONE', #813, 0.03333333333333334700 ) ;
#275 = AXIS2_PLACEMENT_3D ( 'NONE', #1178, #1275, #92 ) ;
#276 = VECTOR ( 'NONE', #884, 1000.000000000000000 ) ;
#277 = CARTESIAN_POINT ( 'NONE',  ( -0.5000000000000000000, 0.05000000000000002400, 0.5749999999999995100 ) ) ;
#278 = DIRECTION ( 'NONE',  ( 1.000000000000000000, 0.0000000000000000000, 0.0000000000000000000 ) ) ;
#279 = EDGE_CURVE ( 'NONE', #231, #118, #830, .T. ) ;
#280 =( NAMED_UNIT ( * ) PLANE_ANGLE_UNIT ( ) SI_UNIT ( $, .RADIAN. ) );
#281 = AXIS2_PLACEMENT_3D ( 'NONE', #542, #543, #1236 ) ;
#282 = VERTEX_POINT ( 'NONE', #720 ) ;
#283 = ORIENTED_EDGE ( 'NONE', *, *, #1226, .F. ) ;
#284 = EDGE_CURVE ( 'NONE', #998, #966, #768, .T. ) ;
#285 = EDGE_CURVE ( 'NONE', #1021, #306, #202, .T. ) ;
#286 = CYLINDRICAL_SURFACE ( 'NONE', #503, 0.05000000000000002400 ) ;
#287 = APPLICATION_PROTOCOL_DEFINITION ( 'draft international standard', 'automotive_design', 1998, #793 ) ;
#288 = DIRECTION ( 'NONE',  ( 1.000000000000000000, -0.0000000000000000000, 0.0000000000000000000 ) ) ;
#289 = DIRECTION ( 'NONE',  ( 0.0000000000000000000, 0.0000000000000000000, -1.000000000000000000 ) ) ;
#290 = DIRECTION ( 'NONE',  ( 0.0000000000000000000, -1.000000000000000000, 0.0000000000000000000 ) ) ;
#291 = CARTESIAN_POINT ( 'NONE',  ( -0.9500000000000001800, 0.5500000000000000400, -0.5750000000000001800 ) ) ;
#292 = VERTEX_POINT ( 'NONE', #225 ) ;
#293 = FACE_OUTER_BOUND ( 'NONE', #453, .T. ) ;
#294 = DIRECTION ( 'NONE',  ( 0.0000000000000000000, 0.0000000000000000000, 1.000000000000000000 ) ) ;
#295 = CARTESIAN_POINT ( 'NONE',  ( 1.000000000000000200, 0.5500000000000000400, -0.6250000000000002200 ) ) ;
#296 =( NAMED_UNIT ( * ) SI_UNIT ( $, .STERADIAN. ) SOLID_ANGLE_UNIT ( ) );
#297 = EDGE_CURVE ( 'NONE', #708, #272, #36, .T. ) ;
#298 =( NAMED_UNIT ( * ) SI_UNIT ( $, .STERADIAN. ) SOLID_ANGLE_UNIT ( ) );
#299 = ORIENTED_EDGE ( 'NONE', *, *, #188, .F. ) ;
#300 = DIRECTION ( 'NONE',  ( 0.0000000000000000000, 0.0000000000000000000, -1.000000000000000000 ) ) ;
#301 = AXIS2_PLACEMENT_3D ( 'NONE', #328, #930, #933 ) ;
#302 = CARTESIAN_POINT ( 'NONE',  ( -0.5000000000000001100, 0.5000000000000000000, 0.6083333333333330600 ) ) ;
#303 = ORIENTED_EDGE ( 'NONE', *, *, #654, .T. ) ;
#304 = CARTESIAN_POINT ( 'NONE',  ( -0.9499999999999999600, 0.05000000000000000300, 0.5749999999999995100 ) ) ;
#305 = CARTESIAN_POINT ( 'NONE',  ( -1.000000000000000000, 0.05000000000000002400, 0.6249999999999995600 ) ) ;
#306 = VERTEX_POINT ( 'NONE', #327 ) ;
#307 = DIRECTION ( 'NONE',  ( 1.000000000000000000, 0.0000000000000000000, 0.0000000000000000000 ) ) ;
#308 = ORIENTED_EDGE ( 'NONE', *, *, #138, .T. ) ;
#309 = SPHERICAL_SURFACE ( 'NONE', #220, 0.05000000000000000300 ) ;
#310 = DIRECTION ( 'NONE',  ( 1.000000000000000000, 0.0000000000000000000, 0.0000000000000000000 ) ) ;
#311 = CARTESIAN_POINT ( 'NONE',  ( -0.9500000000000001800, 0.5000000000000000000, -0.5750000000000001800 ) ) ;
#312 = EDGE_CURVE ( 'NONE', #604, #444, #664, .T. ) ;
#313 = ORIENTED_EDGE ( 'NONE', *, *, #172, .F. ) ;
#314 = VERTEX_POINT ( 'NONE', #526 ) ;
#315 = CARTESIAN_POINT ( 'NONE',  ( -0.9500000000000001800, 0.05000000000000002400, -0.5750000000000001800 ) ) ;
#316 = AXIS2_PLACEMENT_3D ( 'NONE', #968, #676, #162 ) ;
#317 = ORIENTED_EDGE ( 'NONE', *, *, #468, .F. ) ;
#318 = VECTOR ( 'NONE', #572, 1000.000000000000000 ) ;
#319 = EDGE_CURVE ( 'NONE', #966, #1021, #1044, .T. ) ;
#320 = LINE ( 'NONE', #374, #1072 ) ;
#321 = FACE_OUTER_BOUND ( 'NONE', #935, .T. ) ;
#322 = ADVANCED_FACE ( 'NONE', ( #63 ), #34, .T. ) ;
#323 = AXIS2_PLACEMENT_3D ( 'NONE', #1136, #354, #1046 ) ;
#324 = DIRECTION ( 'NONE',  ( 1.000000000000000000, -0.0000000000000000000, -0.0000000000000000000 ) ) ;
#325 = CARTESIAN_POINT ( 'NONE',  ( 0.0000000000000000000, 0.0000000000000000000, -0.5750000000000001800 ) ) ;
#326 = AXIS2_PLACEMENT_3D ( 'NONE', #221, #215, #310 ) ;
#327 = CARTESIAN_POINT ( 'NONE',  ( -0.5000000000000002200, 0.05000000000000002400, -0.6250000000000002200 ) ) ;
#328 = CARTESIAN_POINT ( 'NONE',  ( -0.5000000000000001100, 0.5000000000000000000, -0.5750000000000000700 ) ) ;
#329 = ORIENTED_EDGE ( 'NONE', *, *, #892, .F. ) ;
#330 = ORIENTED_EDGE ( 'NONE', *, *, #5, .T. ) ;
#331 = EDGE_CURVE ( 'NONE', #1102, #74, #1280, .T. ) ;
#332 = DIRECTION ( 'NONE',  ( 1.734723475976807300E-016, -0.0000000000000000000, -1.000000000000000000 ) ) ;
#333 = ORIENTED_EDGE ( 'NONE', *, *, #1235, .T. ) ;
#334 = VECTOR ( 'NONE', #595, 1000.000000000000000 ) ;
#335 = ORIENTED_EDGE ( 'NONE', *, *, #84, .F. ) ;
#336 = FACE_OUTER_BOUND ( 'NONE', #342, .T. ) ;
#337 = CARTESIAN_POINT ( 'NONE',  ( 500000.0000000000600, 0.05000000000000003100, -0.6083333333767014800 ) ) ;
#338 = ADVANCED_FACE ( 'NONE', ( #724 ), #262, .T. ) ;
#339 = PRODUCT_DEFINITION_FORMATION_WITH_SPECIFIED_SOURCE ( 'ANY', '', #789, .NOT_KNOWN. ) ;
#340 = AXIS2_PLACEMENT_3D ( 'NONE', #970, #589, #380 ) ;
#341 = EDGE_LOOP ( 'NONE', ( #576, #247, #68, #40 ) ) ;
#342 = EDGE_LOOP ( 'NONE', ( #442, #1209, #214, #731 ) ) ;
#343 = CARTESIAN_POINT ( 'NONE',  ( 0.5000000000000000000, 0.0000000000000000000, 0.5749999999999994000 ) ) ;
#344 = CARTESIAN_POINT ( 'NONE',  ( -1.000000000000000000, 0.5000000000000000000, 0.6249999999999995600 ) ) ;
#345 = VERTEX_POINT ( 'NONE', #291 ) ;
#346 = EDGE_CURVE ( 'NONE', #948, #502, #1216, .T. ) ;
#347 = CARTESIAN_POINT ( 'NONE',  ( -0.9499999999999999600, 0.5000000000000000000, 0.5749999999999995100 ) ) ;
#348 = AXIS2_PLACEMENT_3D ( 'NONE', #1032, #1040, #947 ) ;
#349 = CARTESIAN_POINT ( 'NONE',  ( -0.5000000000000001100, 0.01666666666666667300, 0.5749999999999995100 ) ) ;
#350 = ORIENTED_EDGE ( 'NONE', *, *, #156, .F. ) ;
#351 = VECTOR ( 'NONE', #797, 1000.000000000000000 ) ;
#352 = CIRCLE ( 'NONE', #920, 0.05000000000000002400 ) ;
#353 = VECTOR ( 'NONE', #402, 1000.000000000000000 ) ;
#354 = DIRECTION ( 'NONE',  ( 0.0000000000000000000, 1.000000000000000000, 0.0000000000000000000 ) ) ;
#355 = PLANE ( 'NONE',  #512 ) ;
#356 = DIRECTION ( 'NONE',  ( 0.0000000000000000000, 0.0000000000000000000, 1.000000000000000000 ) ) ;
#357 = PRESENTATION_LAYER_ASSIGNMENT (  '', '', ( #633 ) ) ;
#358 = CARTESIAN_POINT ( 'NONE',  ( 0.9500000000000001800, 0.5000000000000000000, -0.5750000000000001800 ) ) ;
#359 = ORIENTED_EDGE ( 'NONE', *, *, #1078, .T. ) ;
#360 = LINE ( 'NONE', #89, #850 ) ;
#361 = FACE_OUTER_BOUND ( 'NONE', #1222, .T. ) ;
#362 = CARTESIAN_POINT ( 'NONE',  ( 0.9500000000000001800, 0.5000000000000000000, -0.5750000000000001800 ) ) ;
#363 = ORIENTED_EDGE ( 'NONE', *, *, #114, .T. ) ;
#364 = AXIS2_PLACEMENT_3D ( 'NONE', #4, #1006, #300 ) ;
#365 = LINE ( 'NONE', #73, #982 ) ;
#366 = DIRECTION ( 'NONE',  ( -1.000000000000000000, -0.0000000000000000000, 8.673617379884036700E-017 ) ) ;
#367 = EDGE_CURVE ( 'NONE', #998, #644, #783, .T. ) ;
#368 = EDGE_LOOP ( 'NONE', ( #1015, #125, #975, #646 ) ) ;
#369 = UNCERTAINTY_MEASURE_WITH_UNIT (LENGTH_MEASURE( 1.000000000000000100E-005 ), #1271, 'distance_accuracy_value', 'NONE');
#370 = CYLINDRICAL_SURFACE ( 'NONE', #191, 0.03333333333333334700 ) ;
#371 = FACE_OUTER_BOUND ( 'NONE', #804, .T. ) ;
#372 = CARTESIAN_POINT ( 'NONE',  ( 1.000000000000000200, 0.5500000000000000400, -0.5750000000000001800 ) ) ;
#373 = AXIS2_PLACEMENT_3D ( 'NONE', #1083, #1197, #810 ) ;
#374 = CARTESIAN_POINT ( 'NONE',  ( 0.9499999999999999600, 0.5500000000000000400, 0.6249999999999995600 ) ) ;
#375 = ORIENTED_EDGE ( 'NONE', *, *, #62, .T. ) ;
#376 = ORIENTED_EDGE ( 'NONE', *, *, #1127, .T. ) ;
#377 = FACE_OUTER_BOUND ( 'NONE', #448, .T. ) ;
#378 =( LENGTH_UNIT ( ) NAMED_UNIT ( * ) SI_UNIT ( .MILLI., .METRE. ) );
#379 = CARTESIAN_POINT ( 'NONE',  ( 0.5000000000000002200, 0.5500000000000000400, -0.6250000000000002200 ) ) ;
#380 = DIRECTION ( 'NONE',  ( 0.0000000000000000000, 0.0000000000000000000, -1.000000000000000000 ) ) ;
#381 = DIRECTION ( 'NONE',  ( -1.000000000000000000, 0.0000000000000000000, 0.0000000000000000000 ) ) ;
#382 = ADVANCED_FACE ( 'NONE', ( #695 ), #1017, .T. ) ;
#383 = ORIENTED_EDGE ( 'NONE', *, *, #654, .F. ) ;
#384 = VECTOR ( 'NONE', #962, 1000.000000000000000 ) ;
#385 = PRODUCT_CONTEXT ( 'NONE', #793, 'mechanical' ) ;
#386 = CARTESIAN_POINT ( 'NONE',  ( 0.9499999999999999600, 0.05000000000000000300, 0.5749999999999995100 ) ) ;
#387 = CARTESIAN_POINT ( 'NONE',  ( -1.000000000000000200, 0.5500000000000000400, -0.5750000000000001800 ) ) ;
#388 = AXIS2_PLACEMENT_3D ( 'NONE', #261, #1244, #54 ) ;
#389 = FILL_AREA_STYLE_COLOUR ( '', #1097 ) ;
#390 = ORIENTED_EDGE ( 'NONE', *, *, #639, .T. ) ;
#391 = AXIS2_PLACEMENT_3D ( 'NONE', #817, #1019, #431 ) ;
#392 = CIRCLE ( 'NONE', #987, 0.05000000000000002400 ) ;
#393 = CARTESIAN_POINT ( 'NONE',  ( 0.4999999999881765700, 0.05000000000000002400, -0.5750000000000000700 ) ) ;
#394 = LINE ( 'NONE', #1278, #472 ) ;
#395 = ADVANCED_FACE ( 'NONE', ( #1074 ), #621, .T. ) ;
#396 = PLANE ( 'NONE',  #848 ) ;
#397 = CARTESIAN_POINT ( 'NONE',  ( 0.5000000000000002200, 0.05000000000000002400, -0.5750000000000001800 ) ) ;
#398 =( NAMED_UNIT ( * ) PLANE_ANGLE_UNIT ( ) SI_UNIT ( $, .RADIAN. ) );
#399 = ORIENTED_EDGE ( 'NONE', *, *, #188, .T. ) ;
#400 = LINE ( 'NONE', #69, #1122 ) ;
#401 = VERTEX_POINT ( 'NONE', #205 ) ;
#402 = DIRECTION ( 'NONE',  ( -1.000000000000000000, 0.0000000000000000000, -0.0000000000000000000 ) ) ;
#403 = EDGE_CURVE ( 'NONE', #314, #708, #463, .T. ) ;
#404 = VECTOR ( 'NONE', #493, 1000.000000000000000 ) ;
#405 = CYLINDRICAL_SURFACE ( 'NONE', #547, 0.05000000000000002400 ) ;
#406 = CARTESIAN_POINT ( 'NONE',  ( 0.5000000000000000000, 0.5500000000000000400, 0.6249999999999995600 ) ) ;
#407 = CARTESIAN_POINT ( 'NONE',  ( 1.000000000000000200, 0.05000000000000002400, -0.5750000000000001800 ) ) ;
#408 = CYLINDRICAL_SURFACE ( 'NONE', #484, 0.05000000000000002400 ) ;
#409 = ADVANCED_FACE ( 'NONE', ( #527 ), #15, .T. ) ;
#410 = CARTESIAN_POINT ( 'NONE',  ( -1.000000000000000200, 0.05000000000000002400, -0.6250000000000002200 ) ) ;
#411 = DIRECTION ( 'NONE',  ( 0.0000000000000000000, 0.0000000000000000000, 1.000000000000000000 ) ) ;
#412 = DIRECTION ( 'NONE',  ( 0.0000000000000000000, -1.000000000000000000, 0.0000000000000000000 ) ) ;
#413 = DIRECTION ( 'NONE',  ( 0.0000000000000000000, 0.0000000000000000000, 1.000000000000000000 ) ) ;
#414 = ORIENTED_EDGE ( 'NONE', *, *, #133, .T. ) ;
#415 = CARTESIAN_POINT ( 'NONE',  ( 1.000000000000000000, 0.5500000000000000400, 0.5749999999999994000 ) ) ;
#416 = AXIS2_PLACEMENT_3D ( 'NONE', #362, #1049, #465 ) ;
#417 = ORIENTED_EDGE ( 'NONE', *, *, #457, .F. ) ;
#418 = AXIS2_PLACEMENT_3D ( 'NONE', #887, #519, #1186 ) ;
#419 = DIRECTION ( 'NONE',  ( 0.0000000000000000000, 0.0000000000000000000, -1.000000000000000000 ) ) ;
#420 = CARTESIAN_POINT ( 'NONE',  ( -1.000000000000000200, 0.5000000000000000000, -0.6250000000000002200 ) ) ;
#421 = ORIENTED_EDGE ( 'NONE', *, *, #83, .F. ) ;
#422 = FACE_OUTER_BOUND ( 'NONE', #798, .T. ) ;
#423 = CARTESIAN_POINT ( 'NONE',  ( 0.4999999999881765700, 0.01666666666666666600, -0.5749999999999999600 ) ) ;
#424 = CARTESIAN_POINT ( 'NONE',  ( 0.9499999999999999600, 0.0000000000000000000, 0.5749999999999995100 ) ) ;
#425 = DIRECTION ( 'NONE',  ( 0.0000000000000000000, 0.0000000000000000000, 1.000000000000000000 ) ) ;
#426 = DIRECTION ( 'NONE',  ( -1.000000000000000000, -0.0000000000000000000, 8.673617379884036700E-017 ) ) ;
#427 = ORIENTED_EDGE ( 'NONE', *, *, #319, .T. ) ;
#428 = CARTESIAN_POINT ( 'NONE',  ( 1.000000000000000200, 0.05000000000000002400, -0.5750000000000001800 ) ) ;
#429 = UNCERTAINTY_MEASURE_WITH_UNIT (LENGTH_MEASURE( 1.000000000000000100E-005 ), #1163, 'distance_accuracy_value', 'NONE');
#430 = DIRECTION ( 'NONE',  ( 1.000000000000000000, 0.0000000000000000000, 1.734723475976807300E-016 ) ) ;
#431 = DIRECTION ( 'NONE',  ( -1.000000000000000000, 0.0000000000000000000, 0.0000000000000000000 ) ) ;
#432 = ORIENTED_EDGE ( 'NONE', *, *, #564, .F. ) ;
#433 = DIRECTION ( 'NONE',  ( 1.000000000000000000, 0.0000000000000000000, 0.0000000000000000000 ) ) ;
#434 = CYLINDRICAL_SURFACE ( 'NONE', #388, 0.03333333333333334700 ) ;
#435 = ORIENTED_EDGE ( 'NONE', *, *, #792, .T. ) ;
#436 = EDGE_CURVE ( 'NONE', #444, #292, #954, .T. ) ;
#437 = SURFACE_STYLE_FILL_AREA ( #758 ) ;
#438 = CIRCLE ( 'NONE', #902, 0.05000000000000002400 ) ;
#439 = AXIS2_PLACEMENT_3D ( 'NONE', #393, #989, #1185 ) ;
#440 = FACE_OUTER_BOUND ( 'NONE', #368, .T. ) ;
#441 = ORIENTED_EDGE ( 'NONE', *, *, #703, .F. ) ;
#442 = ORIENTED_EDGE ( 'NONE', *, *, #639, .F. ) ;
#443 = AXIS2_PLACEMENT_3D ( 'NONE', #808, #895, #609 ) ;
#444 = VERTEX_POINT ( 'NONE', #1094 ) ;
#445 = AXIS2_PLACEMENT_3D ( 'NONE', #934, #1241, #1132 ) ;
#446 = ADVANCED_FACE ( 'NONE', ( #842 ), #1047, .T. ) ;
#447 = CARTESIAN_POINT ( 'NONE',  ( -1.000000000000000200, 0.5500000000000000400, -0.6250000000000002200 ) ) ;
#448 = EDGE_LOOP ( 'NONE', ( #532, #993, #596, #537 ) ) ;
#449 = ORIENTED_EDGE ( 'NONE', *, *, #279, .T. ) ;
#450 = DIRECTION ( 'NONE',  ( 0.0000000000000000000, 1.000000000000000000, -0.0000000000000000000 ) ) ;
#451 = CIRCLE ( 'NONE', #959, 0.03333333333333334700 ) ;
#452 = CARTESIAN_POINT ( 'NONE',  ( -0.5000000000000001100, 0.05000000000000002400, -0.5750000000000000700 ) ) ;
#453 = EDGE_LOOP ( 'NONE', ( #820, #924, #81, #1227 ) ) ;
#454 = DIRECTION ( 'NONE',  ( -1.734723475976807300E-016, 0.0000000000000000000, 1.000000000000000000 ) ) ;
#455 = ORIENTED_EDGE ( 'NONE', *, *, #1162, .F. ) ;
#456 = CARTESIAN_POINT ( 'NONE',  ( 0.4999999999881765700, 0.05000000000000002400, 0.6083333333333330600 ) ) ;
#457 = EDGE_CURVE ( 'NONE', #604, #824, #352, .T. ) ;
#458 = AXIS2_PLACEMENT_3D ( 'NONE', #1042, #839, #1240 ) ;
#459 = CARTESIAN_POINT ( 'NONE',  ( -0.5000000000000001100, 0.05000000000000003100, -0.6083333333333333900 ) ) ;
#460 = DIRECTION ( 'NONE',  ( 0.0000000000000000000, -1.000000000000000000, 0.0000000000000000000 ) ) ;
#461 = ORIENTED_EDGE ( 'NONE', *, *, #1230, .T. ) ;
#462 = FACE_OUTER_BOUND ( 'NONE', #539, .T. ) ;
#463 = LINE ( 'NONE', #601, #1171 ) ;
#464 = LINE ( 'NONE', #832, #608 ) ;
#465 = DIRECTION ( 'NONE',  ( 0.0000000000000000000, 0.0000000000000000000, 1.000000000000000000 ) ) ;
#466 = CIRCLE ( 'NONE', #791, 0.03333333333333334700 ) ;
#467 = UNCERTAINTY_MEASURE_WITH_UNIT (LENGTH_MEASURE( 1.000000000000000100E-005 ), #849, 'distance_accuracy_value', 'NONE');
#468 = EDGE_CURVE ( 'NONE', #617, #1129, #557, .T. ) ;
#469 = VERTEX_POINT ( 'NONE', #1038 ) ;
#470 = CYLINDRICAL_SURFACE ( 'NONE', #418, 0.05000000000000002400 ) ;
#471 = EDGE_LOOP ( 'NONE', ( #383, #147, #474, #1064, #1207, #712, #1120, #1250 ) ) ;
#472 = VECTOR ( 'NONE', #196, 1000.000000000000000 ) ;
#473 = CARTESIAN_POINT ( 'NONE',  ( 0.4999999999881765700, 0.5333333333333333300, -0.5750000000000000700 ) ) ;
#474 = ORIENTED_EDGE ( 'NONE', *, *, #1096, .F. ) ;
#475 = AXIS2_PLACEMENT_3D ( 'NONE', #315, #898, #1104 ) ;
#476 =( NAMED_UNIT ( * ) SI_UNIT ( $, .STERADIAN. ) SOLID_ANGLE_UNIT ( ) );
#477 = ORIENTED_EDGE ( 'NONE', *, *, #151, .T. ) ;
#478 = VECTOR ( 'NONE', #706, 1000.000000000000000 ) ;
#479 = DIRECTION ( 'NONE',  ( -1.000000000000000000, 0.0000000000000000000, 0.0000000000000000000 ) ) ;
#480 = LINE ( 'NONE', #1267, #276 ) ;
#481 = SURFACE_STYLE_USAGE ( .BOTH. , #578 ) ;
#482 = EDGE_CURVE ( 'NONE', #306, #21, #984, .T. ) ;
#483 = DIRECTION ( 'NONE',  ( -1.000000000000000000, -0.0000000000000000000, 8.673617379884036700E-017 ) ) ;
#484 = AXIS2_PLACEMENT_3D ( 'NONE', #491, #971, #289 ) ;
#485 = EDGE_CURVE ( 'NONE', #1277, #401, #787, .T. ) ;
#486 = EDGE_LOOP ( 'NONE', ( #26, #1199, #561, #663 ) ) ;
#487 = ORIENTED_EDGE ( 'NONE', *, *, #827, .F. ) ;
#488 = DIRECTION ( 'NONE',  ( -1.734723475976807300E-016, 0.0000000000000000000, 1.000000000000000000 ) ) ;
#489 = SURFACE_SIDE_STYLE ('',( #164 ) ) ;
#490 = CARTESIAN_POINT ( 'NONE',  ( -0.5000000000000000000, 0.5500000000000000400, 0.5749999999999995100 ) ) ;
#491 = CARTESIAN_POINT ( 'NONE',  ( 0.9499999999999999600, 0.5500000000000000400, 0.5749999999999995100 ) ) ;
#492 = VERTEX_POINT ( 'NONE', #57 ) ;
#493 = DIRECTION ( 'NONE',  ( 0.0000000000000000000, 0.0000000000000000000, -1.000000000000000000 ) ) ;
#494 = VECTOR ( 'NONE', #80, 1000.000000000000000 ) ;
#495 = VECTOR ( 'NONE', #33, 1000.000000000000000 ) ;
#496 = DIRECTION ( 'NONE',  ( 0.0000000000000000000, 0.0000000000000000000, 1.000000000000000000 ) ) ;
#497 = CIRCLE ( 'NONE', #170, 0.05000000000000002400 ) ;
#498 = DIRECTION ( 'NONE',  ( -1.000000000000000000, 0.0000000000000000000, 0.0000000000000000000 ) ) ;
#499 = DIRECTION ( 'NONE',  ( 1.000000000000000000, 0.0000000000000000000, 1.734723475976807300E-016 ) ) ;
#500 = AXIS2_PLACEMENT_3D ( 'NONE', #16, #1172, #772 ) ;
#501 = CARTESIAN_POINT ( 'NONE',  ( 0.5000000000000002200, 0.5500000000000000400, -0.5750000000000001800 ) ) ;
#502 = VERTEX_POINT ( 'NONE', #837 ) ;
#503 = AXIS2_PLACEMENT_3D ( 'NONE', #552, #1025, #1159 ) ;
#504 = FACE_OUTER_BOUND ( 'NONE', #486, .T. ) ;
#505 = FACE_OUTER_BOUND ( 'NONE', #72, .T. ) ;
#506 = CARTESIAN_POINT ( 'NONE',  ( 0.4999999999881765700, 0.5000000000000000000, 0.5749999999999996200 ) ) ;
#507 = ORIENTED_EDGE ( 'NONE', *, *, #24, .T. ) ;
#508 = AXIS2_PLACEMENT_3D ( 'NONE', #122, #701, #204 ) ;
#509 = CARTESIAN_POINT ( 'NONE',  ( -1.000000000000000000, 0.05000000000000002400, 0.5749999999999995100 ) ) ;
#510 = ORIENTED_EDGE ( 'NONE', *, *, #524, .T. ) ;
#511 = DIRECTION ( 'NONE',  ( -1.000000000000000000, 0.0000000000000000000, 0.0000000000000000000 ) ) ;
#512 = AXIS2_PLACEMENT_3D ( 'NONE', #1137, #144, #735 ) ;
#513 = CIRCLE ( 'NONE', #281, 0.05000000000000002400 ) ;
#514 = CIRCLE ( 'NONE', #659, 0.05000000000000002400 ) ;
#515 = CYLINDRICAL_SURFACE ( 'NONE', #1233, 0.05000000000000002400 ) ;
#516 = DIRECTION ( 'NONE',  ( 1.000000000000000000, 0.0000000000000000000, 1.734723475976807300E-016 ) ) ;
#517 = CARTESIAN_POINT ( 'NONE',  ( 1.000000000000000000, 0.05000000000000002400, 0.6249999999999995600 ) ) ;
#518 = ORIENTED_EDGE ( 'NONE', *, *, #823, .T. ) ;
#519 = DIRECTION ( 'NONE',  ( 0.0000000000000000000, -1.000000000000000000, 0.0000000000000000000 ) ) ;
#520 = DIRECTION ( 'NONE',  ( 0.0000000000000000000, 2.168404344971007700E-015, 1.000000000000000000 ) ) ;
#521 = ADVANCED_FACE ( 'NONE', ( #129 ), #265, .F. ) ;
#522 = DIRECTION ( 'NONE',  ( -1.000000000000000000, -0.0000000000000000000, -0.0000000000000000000 ) ) ;
#523 = DIRECTION ( 'NONE',  ( 0.0000000000000000000, 0.0000000000000000000, -1.000000000000000000 ) ) ;
#524 = EDGE_CURVE ( 'NONE', #838, #199, #753, .T. ) ;
#525 = EDGE_LOOP ( 'NONE', ( #258, #1223, #990 ) ) ;
#526 = CARTESIAN_POINT ( 'NONE',  ( 0.9500000000000001800, 0.05000000000000002400, -0.6250000000000002200 ) ) ;
#527 = FACE_OUTER_BOUND ( 'NONE', #341, .T. ) ;
#528 = LINE ( 'NONE', #888, #353 ) ;
#529 = CARTESIAN_POINT ( 'NONE',  ( -0.9500000000000001800, 0.05000000000000002400, -0.5750000000000001800 ) ) ;
#530 = AXIS2_PLACEMENT_3D ( 'NONE', #625, #1108, #29 ) ;
#531 = DIRECTION ( 'NONE',  ( 0.0000000000000000000, -1.000000000000000000, 0.0000000000000000000 ) ) ;
#532 = ORIENTED_EDGE ( 'NONE', *, *, #312, .T. ) ;
#533 = LINE ( 'NONE', #1175, #268 ) ;
#534 = PLANE ( 'NONE',  #709 ) ;
#535 = ORIENTED_EDGE ( 'NONE', *, *, #858, .F. ) ;
#536 = MANIFOLD_SOLID_BREP ( 'Mirror2', #94 ) ;
#537 = ORIENTED_EDGE ( 'NONE', *, *, #58, .T. ) ;
#538 = CARTESIAN_POINT ( 'NONE',  ( 500000.0000000000600, 0.05000000000000002400, -0.5750000000433681500 ) ) ;
#539 = EDGE_LOOP ( 'NONE', ( #32, #1258, #675, #949 ) ) ;
#540 = CIRCLE ( 'NONE', #786, 0.05000000000000002400 ) ;
#541 = AXIS2_PLACEMENT_3D ( 'NONE', #686, #294, #680 ) ;
#542 = CARTESIAN_POINT ( 'NONE',  ( -0.5000000000000000000, 0.5000000000000000000, 0.5749999999999995100 ) ) ;
#543 = DIRECTION ( 'NONE',  ( 1.000000000000000000, -0.0000000000000000000, -1.734723475976807300E-016 ) ) ;
#544 = ORIENTED_EDGE ( 'NONE', *, *, #545, .F. ) ;
#545 = EDGE_CURVE ( 'NONE', #118, #306, #585, .T. ) ;
#546 = ORIENTED_EDGE ( 'NONE', *, *, #1255, .T. ) ;
#547 = AXIS2_PLACEMENT_3D ( 'NONE', #914, #235, #630 ) ;
#548 = ORIENTED_EDGE ( 'NONE', *, *, #568, .T. ) ;
#549 = DIRECTION ( 'NONE',  ( -0.0000000000000000000, -1.000000000000000000, -0.0000000000000000000 ) ) ;
#550 = CARTESIAN_POINT ( 'NONE',  ( -0.5000000000000002200, 0.5000000000000000000, -0.6250000000000002200 ) ) ;
#551 = EDGE_CURVE ( 'NONE', #1129, #953, #320, .T. ) ;
#552 = CARTESIAN_POINT ( 'NONE',  ( 0.9500000000000001800, 0.05000000000000002400, -0.6250000000000002200 ) ) ;
#553 = ADVANCED_FACE ( 'NONE', ( #559 ), #396, .F. ) ;
#554 = DIRECTION ( 'NONE',  ( 0.0000000000000000000, 0.0000000000000000000, 1.000000000000000000 ) ) ;
#555 = ORIENTED_EDGE ( 'NONE', *, *, #222, .T. ) ;
#556 = CARTESIAN_POINT ( 'NONE',  ( -0.9500000000000001800, 0.05000000000000000300, -0.5750000000000001800 ) ) ;
#557 = CIRCLE ( 'NONE', #593, 0.05000000000000002400 ) ;
#558 = VECTOR ( 'NONE', #412, 1000.000000000000000 ) ;
#559 = FACE_OUTER_BOUND ( 'NONE', #149, .T. ) ;
#560 = DIRECTION ( 'NONE',  ( -1.000000000000000000, 0.0000000000000000000, 0.0000000000000000000 ) ) ;
#561 = ORIENTED_EDGE ( 'NONE', *, *, #1276, .F. ) ;
#562 = DIRECTION ( 'NONE',  ( 1.000000000000000000, 0.0000000000000000000, 1.734723475976807300E-016 ) ) ;
#563 = VECTOR ( 'NONE', #777, 1000.000000000000000 ) ;
#564 = EDGE_CURVE ( 'NONE', #1041, #861, #1205, .T. ) ;
#565 = ORIENTED_EDGE ( 'NONE', *, *, #943, .F. ) ;
#566 =( GEOMETRIC_REPRESENTATION_CONTEXT ( 3 ) GLOBAL_UNCERTAINTY_ASSIGNED_CONTEXT ( ( #8 ) ) GLOBAL_UNIT_ASSIGNED_CONTEXT ( ( #782, #398, #298 ) ) REPRESENTATION_CONTEXT ( 'NONE', 'WORKASPACE' ) );
#567 = FILL_AREA_STYLE_COLOUR ( '', #155 ) ;
#568 = EDGE_CURVE ( 'NONE', #643, #838, #698, .T. ) ;
#569 = ORIENTED_EDGE ( 'NONE', *, *, #245, .F. ) ;
#570 = EDGE_LOOP ( 'NONE', ( #1055, #1115, #802, #582 ) ) ;
#571 = CIRCLE ( 'NONE', #1206, 0.05000000000000002400 ) ;
#572 = DIRECTION ( 'NONE',  ( 1.734723475976807300E-016, -0.0000000000000000000, -1.000000000000000000 ) ) ;
#573 = CYLINDRICAL_SURFACE ( 'NONE', #826, 0.04999999999999991300 ) ;
#574 = AXIS2_PLACEMENT_3D ( 'NONE', #988, #1101, #12 ) ;
#575 = DIRECTION ( 'NONE',  ( -1.000000000000000000, -0.0000000000000000000, -0.0000000000000000000 ) ) ;
#576 = ORIENTED_EDGE ( 'NONE', *, *, #172, .T. ) ;
#577 = EDGE_LOOP ( 'NONE', ( #544, #104, #611, #1070 ) ) ;
#578 = SURFACE_SIDE_STYLE ('',( #437 ) ) ;
#579 = DIRECTION ( 'NONE',  ( -1.000000000000000000, -0.0000000000000000000, 8.673617379884036700E-017 ) ) ;
#580 = DIRECTION ( 'NONE',  ( 0.0000000000000000000, 0.0000000000000000000, 1.000000000000000000 ) ) ;
#581 = DIRECTION ( 'NONE',  ( -1.000000000000000000, 0.0000000000000000000, 1.734723475976811800E-016 ) ) ;
#582 = ORIENTED_EDGE ( 'NONE', *, *, #367, .F. ) ;
#583 = CARTESIAN_POINT ( 'NONE',  ( 0.9499999999999999600, 0.5000000000000000000, 0.5749999999999995100 ) ) ;
#584 = SPHERICAL_SURFACE ( 'NONE', #18, 0.05000000000000000300 ) ;
#585 = CIRCLE ( 'NONE', #740, 0.05000000000000002400 ) ;
#586 = CIRCLE ( 'NONE', #745, 0.05000000000000002400 ) ;
#587 = EDGE_CURVE ( 'NONE', #1269, #644, #497, .T. ) ;
#588 = FILL_AREA_STYLE ('',( #607 ) ) ;
#589 = DIRECTION ( 'NONE',  ( 0.0000000000000000000, -1.000000000000000000, 0.0000000000000000000 ) ) ;
#590 = AXIS2_PLACEMENT_3D ( 'NONE', #1168, #1263, #86 ) ;
#591 = DIRECTION ( 'NONE',  ( 0.0000000000000000000, 0.0000000000000000000, -1.000000000000000000 ) ) ;
#592 = DIRECTION ( 'NONE',  ( 0.0000000000000000000, -1.000000000000000000, -0.0000000000000000000 ) ) ;
#593 = AXIS2_PLACEMENT_3D ( 'NONE', #1145, #549, #554 ) ;
#594 = EDGE_CURVE ( 'NONE', #28, #855, #1153, .T. ) ;
#595 = DIRECTION ( 'NONE',  ( 1.734723475976807300E-016, -0.0000000000000000000, 1.000000000000000000 ) ) ;
#596 = ORIENTED_EDGE ( 'NONE', *, *, #1183, .F. ) ;
#597 = DIRECTION ( 'NONE',  ( 0.0000000000000000000, 0.0000000000000000000, -1.000000000000000000 ) ) ;
#598 = CARTESIAN_POINT ( 'NONE',  ( 0.0000000000000000000, 0.5000000000000000000, -0.5750000000000001800 ) ) ;
#599 = ORIENTED_EDGE ( 'NONE', *, *, #331, .T. ) ;
#600 = DIRECTION ( 'NONE',  ( 0.0000000000000000000, 0.0000000000000000000, 1.000000000000000000 ) ) ;
#601 = CARTESIAN_POINT ( 'NONE',  ( 0.9500000000000001800, 0.5500000000000000400, -0.6250000000000002200 ) ) ;
#602 = CARTESIAN_POINT ( 'NONE',  ( 1.000000000000000200, 0.05000000000000002400, -0.6250000000000002200 ) ) ;
#603 = AXIS2_PLACEMENT_3D ( 'NONE', #447, #641, #831 ) ;
#604 = VERTEX_POINT ( 'NONE', #780 ) ;
#605 = SURFACE_STYLE_FILL_AREA ( #666 ) ;
#606 = ORIENTED_EDGE ( 'NONE', *, *, #1098, .T. ) ;
#607 = FILL_AREA_STYLE_COLOUR ( '', #691 ) ;
#608 = VECTOR ( 'NONE', #741, 1000.000000000000000 ) ;
#609 = DIRECTION ( 'NONE',  ( 0.0000000000000000000, 0.0000000000000000000, 1.000000000000000000 ) ) ;
#610 = CARTESIAN_POINT ( 'NONE',  ( -0.5000000000000001100, 0.5000000000000000000, 0.6083333333333330600 ) ) ;
#611 = ORIENTED_EDGE ( 'NONE', *, *, #175, .F. ) ;
#612 = MECHANICAL_DESIGN_GEOMETRIC_PRESENTATION_REPRESENTATION (  '', ( #41 ), #241 ) ;
#613 = ADVANCED_FACE ( 'NONE', ( #941 ), #7, .F. ) ;
#614 = ORIENTED_EDGE ( 'NONE', *, *, #1013, .T. ) ;
#615 = EDGE_LOOP ( 'NONE', ( #754, #27, #599, #565 ) ) ;
#616 = CARTESIAN_POINT ( 'NONE',  ( 0.5000000000000000000, 0.05000000000000002400, 0.6249999999999995600 ) ) ;
#617 = VERTEX_POINT ( 'NONE', #1076 ) ;
#618 = DIRECTION ( 'NONE',  ( -1.000000000000000000, 0.0000000000000000000, 0.0000000000000000000 ) ) ;
#619 = LINE ( 'NONE', #103, #351 ) ;
#620 = VECTOR ( 'NONE', #890, 1000.000000000000000 ) ;
#621 = CYLINDRICAL_SURFACE ( 'NONE', #1264, 0.05000000000000002400 ) ;
#622 = DIRECTION ( 'NONE',  ( -0.0000000000000000000, -1.000000000000000000, -0.0000000000000000000 ) ) ;
#623 = CARTESIAN_POINT ( 'NONE',  ( 0.9500000000000001800, 0.05000000000000002400, -0.5750000000000001800 ) ) ;
#624 = ADVANCED_FACE ( 'NONE', ( #1170 ), #1273, .F. ) ;
#625 = CARTESIAN_POINT ( 'NONE',  ( -0.9500000000000001800, 0.5000000000000000000, -0.5750000000000001800 ) ) ;
#626 = CARTESIAN_POINT ( 'NONE',  ( 0.5000000000000002200, 0.0000000000000000000, -0.6250000000000002200 ) ) ;
#627 = ORIENTED_EDGE ( 'NONE', *, *, #285, .T. ) ;
#628 = VECTOR ( 'NONE', #765, 1000.000000000000000 ) ;
#629 = ORIENTED_EDGE ( 'NONE', *, *, #551, .T. ) ;
#630 = DIRECTION ( 'NONE',  ( 0.0000000000000000000, 0.0000000000000000000, 1.000000000000000000 ) ) ;
#631 = ORIENTED_EDGE ( 'NONE', *, *, #485, .T. ) ;
#632 = ADVANCED_FACE ( 'NONE', ( #236 ), #573, .T. ) ;
#633 = STYLED_ITEM ( 'NONE', ( #967 ), #899 ) ;
#634 = ORIENTED_EDGE ( 'NONE', *, *, #1226, .T. ) ;
#635 = VECTOR ( 'NONE', #1202, 1000.000000000000000 ) ;
#636 = CARTESIAN_POINT ( 'NONE',  ( 500000.0000000000600, 0.01666666666666666600, -0.5750000000433680400 ) ) ;
#637 = MECHANICAL_DESIGN_GEOMETRIC_PRESENTATION_REPRESENTATION (  '', ( #76 ), #896 ) ;
#638 = LINE ( 'NONE', #10, #1125 ) ;
#639 = EDGE_CURVE ( 'NONE', #1103, #795, #480, .T. ) ;
#640 = CARTESIAN_POINT ( 'NONE',  ( -0.9499999999999999600, 0.5000000000000000000, 0.5749999999999995100 ) ) ;
#641 = DIRECTION ( 'NONE',  ( 1.000000000000000000, 0.0000000000000000000, -1.734723475976807300E-016 ) ) ;
#642 = AXIS2_PLACEMENT_3D ( 'NONE', #132, #1016, #523 ) ;
#643 = VERTEX_POINT ( 'NONE', #862 ) ;
#644 = VERTEX_POINT ( 'NONE', #197 ) ;
#645 = CARTESIAN_POINT ( 'NONE',  ( 1.000000000000000000, 0.5000000000000000000, 0.6249999999999995600 ) ) ;
#646 = ORIENTED_EDGE ( 'NONE', *, *, #1235, .F. ) ;
#647 = DIRECTION ( 'NONE',  ( -1.000000000000000000, 0.0000000000000000000, 0.0000000000000000000 ) ) ;
#648 = CARTESIAN_POINT ( 'NONE',  ( 0.4999999999881765700, 0.05000000000000002400, -0.6083333333333333900 ) ) ;
#649 = ORIENTED_EDGE ( 'NONE', *, *, #245, .T. ) ;
#650 = LINE ( 'NONE', #1147, #1135 ) ;
#651 = DIRECTION ( 'NONE',  ( 0.0000000000000000000, 0.0000000000000000000, -1.000000000000000000 ) ) ;
#652 = VECTOR ( 'NONE', #324, 1000.000000000000000 ) ;
#653 = CARTESIAN_POINT ( 'NONE',  ( -1.000000000000000200, 0.5500000000000000400, -0.6250000000000002200 ) ) ;
#654 = EDGE_CURVE ( 'NONE', #401, #643, #466, .T. ) ;
#655 = MANIFOLD_SOLID_BREP ( 'Fillet1', #684 ) ;
#656 = ORIENTED_EDGE ( 'NONE', *, *, #297, .T. ) ;
#657 = CYLINDRICAL_SURFACE ( 'NONE', #340, 0.05000000000000002400 ) ;
#658 = EDGE_LOOP ( 'NONE', ( #421, #432, #932, #881 ) ) ;
#659 = AXIS2_PLACEMENT_3D ( 'NONE', #1011, #1113, #425 ) ;
#660 = EDGE_CURVE ( 'NONE', #469, #345, #956, .T. ) ;
#661 = ORIENTED_EDGE ( 'NONE', *, *, #792, .F. ) ;
#662 = CARTESIAN_POINT ( 'NONE',  ( -0.5000000000000000000, 0.5500000000000000400, 0.6249999999999995600 ) ) ;
#663 = ORIENTED_EDGE ( 'NONE', *, *, #403, .T. ) ;
#664 = LINE ( 'NONE', #233, #840 ) ;
#665 = FACE_OUTER_BOUND ( 'NONE', #905, .T. ) ;
#666 = FILL_AREA_STYLE ('',( #567 ) ) ;
#667 = VERTEX_POINT ( 'NONE', #788 ) ;
#668 = DIRECTION ( 'NONE',  ( -1.000000000000000000, -0.0000000000000000000, 8.673617379884036700E-017 ) ) ;
#669 = ORIENTED_EDGE ( 'NONE', *, *, #1270, .T. ) ;
#670 = VERTEX_POINT ( 'NONE', #693 ) ;
#671 = CARTESIAN_POINT ( 'NONE',  ( -0.5000000000000001100, 0.5333333333333333300, -0.5750000000000000700 ) ) ;
#672 = AXIS2_PLACEMENT_3D ( 'NONE', #685, #879, #3 ) ;
#673 = DIRECTION ( 'NONE',  ( 0.0000000000000000000, 1.000000000000000000, 0.0000000000000000000 ) ) ;
#674 = CARTESIAN_POINT ( 'NONE',  ( 0.4999999999881765700, 0.5000000000000000000, 0.6083333333333330600 ) ) ;
#675 = ORIENTED_EDGE ( 'NONE', *, *, #594, .T. ) ;
#676 = DIRECTION ( 'NONE',  ( 0.0000000000000000000, 0.0000000000000000000, -1.000000000000000000 ) ) ;
#677 = CARTESIAN_POINT ( 'NONE',  ( 0.4999999999881765700, 0.01666666666666666600, 0.5749999998698953600 ) ) ;
#678 = CARTESIAN_POINT ( 'NONE',  ( -0.5000000000000002200, 0.05000000000000002400, -0.5750000000000001800 ) ) ;
#679 = AXIS2_PLACEMENT_3D ( 'NONE', #277, #687, #580 ) ;
#680 = DIRECTION ( 'NONE',  ( 1.000000000000000000, 0.0000000000000000000, 0.0000000000000000000 ) ) ;
#681 = CARTESIAN_POINT ( 'NONE',  ( -0.5000000000000002200, 0.0000000000000000000, -0.5750000000000001800 ) ) ;
#682 = ORIENTED_EDGE ( 'NONE', *, *, #951, .F. ) ;
#683 = DIRECTION ( 'NONE',  ( 1.734723475976807300E-016, -0.0000000000000000000, 1.000000000000000000 ) ) ;
#684 = CLOSED_SHELL ( 'NONE', ( #6, #113, #13, #1106, #409, #624, #917, #120, #230, #940, #223, #911, #632, #742, #726, #219, #44, #240 ) ) ;
#685 = CARTESIAN_POINT ( 'NONE',  ( 1.000000000000000000, 0.05000000000000002400, 0.5749999999999995100 ) ) ;
#686 = CARTESIAN_POINT ( 'NONE',  ( 0.0000000000000000000, 0.0000000000000000000, 0.0000000000000000000 ) ) ;
#687 = DIRECTION ( 'NONE',  ( 1.000000000000000000, -0.0000000000000000000, -1.734723475976807300E-016 ) ) ;
#688 = MECHANICAL_DESIGN_GEOMETRIC_PRESENTATION_REPRESENTATION (  '', ( #918 ), #1154 ) ;
#689 = VERTEX_POINT ( 'NONE', #1075 ) ;
#690 = DIRECTION ( 'NONE',  ( 1.000000000000000000, 0.0000000000000000000, 1.734723475976807300E-016 ) ) ;
#691 = COLOUR_RGB ( '',0.7921568627450980000, 0.8196078431372548800, 0.9333333333333333500 ) ;
#692 = EDGE_LOOP ( 'NONE', ( #330, #981, #891, #629 ) ) ;
#693 = CARTESIAN_POINT ( 'NONE',  ( -0.5000000000000000000, 0.05000000000000002400, 0.6249999999999995600 ) ) ;
#694 = UNCERTAINTY_MEASURE_WITH_UNIT (LENGTH_MEASURE( 1.000000000000000100E-005 ), #378, 'distance_accuracy_value', 'NONE');
#695 = FACE_OUTER_BOUND ( 'NONE', #779, .T. ) ;
#696 = LINE ( 'NONE', #602, #635 ) ;
#697 = CARTESIAN_POINT ( 'NONE',  ( -0.9500000000000001800, 0.05000000000000000300, -0.5750000000000001800 ) ) ;
#698 = LINE ( 'NONE', #671, #1126 ) ;
#699 = EDGE_CURVE ( 'NONE', #1105, #689, #807, .T. ) ;
#700 = CARTESIAN_POINT ( 'NONE',  ( 0.4999999999881765700, 0.5333333333333333300, 0.5749999999999994000 ) ) ;
#701 = DIRECTION ( 'NONE',  ( -1.000000000000000000, -0.0000000000000000000, 8.673617379884036700E-017 ) ) ;
#702 = CARTESIAN_POINT ( 'NONE',  ( 0.0000000000000000000, 0.5500000000000000400, 0.0000000000000000000 ) ) ;
#703 = EDGE_CURVE ( 'NONE', #689, #1144, #451, .T. ) ;
#704 = EDGE_LOOP ( 'NONE', ( #1224, #922, #548, #283 ) ) ;
#705 = CARTESIAN_POINT ( 'NONE',  ( 0.5000000000000002200, 0.5000000000000000000, -0.5750000000000001800 ) ) ;
#706 = DIRECTION ( 'NONE',  ( -1.734723475976807300E-016, -0.0000000000000000000, -1.000000000000000000 ) ) ;
#707 = ORIENTED_EDGE ( 'NONE', *, *, #25, .F. ) ;
#708 = VERTEX_POINT ( 'NONE', #794 ) ;
#709 = AXIS2_PLACEMENT_3D ( 'NONE', #337, #239, #226 ) ;
#710 = CARTESIAN_POINT ( 'NONE',  ( -0.5000000000000001100, 0.5333333333333333300, 0.5749999999999994000 ) ) ;
#711 = ORIENTED_EDGE ( 'NONE', *, *, #67, .F. ) ;
#712 = ORIENTED_EDGE ( 'NONE', *, *, #885, .F. ) ;
#713 = CARTESIAN_POINT ( 'NONE',  ( 500000.0000000000600, 0.01666666666666666600, 0.5749999999566314200 ) ) ;
#714 = ADVANCED_FACE ( 'NONE', ( #182 ), #408, .T. ) ;
#715 = DIRECTION ( 'NONE',  ( 0.0000000000000000000, 0.0000000000000000000, -1.000000000000000000 ) ) ;
#716 = ORIENTED_EDGE ( 'NONE', *, *, #594, .F. ) ;
#717 = CARTESIAN_POINT ( 'NONE',  ( 0.5000000000000002200, 0.5000000000000000000, -0.6250000000000002200 ) ) ;
#718 = ADVANCED_FACE ( 'NONE', ( #875 ), #515, .T. ) ;
#719 = AXIS2_PLACEMENT_3D ( 'NONE', #1069, #683, #278 ) ;
#720 = CARTESIAN_POINT ( 'NONE',  ( 1.000000000000000000, 0.05000000000000002400, 0.5749999999999995100 ) ) ;
#721 = ORIENTED_EDGE ( 'NONE', *, *, #67, .T. ) ;
#722 = CARTESIAN_POINT ( 'NONE',  ( -1.000000000000000200, 0.5000000000000000000, -0.5750000000000001800 ) ) ;
#723 = LINE ( 'NONE', #1053, #105 ) ;
#724 = FACE_OUTER_BOUND ( 'NONE', #119, .T. ) ;
#725 = VECTOR ( 'NONE', #426, 1000.000000000000000 ) ;
#726 = ADVANCED_FACE ( 'NONE', ( #1057 ), #23, .T. ) ;
#727 = PRODUCT_DEFINITION_SHAPE ( 'NONE', 'NONE',  #1089 ) ;
#728 = DIRECTION ( 'NONE',  ( 0.0000000000000000000, 0.0000000000000000000, -1.000000000000000000 ) ) ;
#729 = EDGE_CURVE ( 'NONE', #861, #282, #249, .T. ) ;
#730 = CARTESIAN_POINT ( 'NONE',  ( -1.000000000000000000, 0.5500000000000000400, 0.5749999999999994000 ) ) ;
#731 = ORIENTED_EDGE ( 'NONE', *, *, #762, .F. ) ;
#732 = VERTEX_POINT ( 'NONE', #775 ) ;
#733 = LINE ( 'NONE', #730, #961 ) ;
#734 = DIRECTION ( 'NONE',  ( 0.0000000000000000000, 1.000000000000000000, 0.0000000000000000000 ) ) ;
#735 = DIRECTION ( 'NONE',  ( 1.734723475976807300E-016, 0.0000000000000000000, 1.000000000000000000 ) ) ;
#736 = ORIENTED_EDGE ( 'NONE', *, *, #858, .T. ) ;
#737 = EDGE_LOOP ( 'NONE', ( #163, #761, #1257, #148 ) ) ;
#738 = FACE_OUTER_BOUND ( 'NONE', #658, .T. ) ;
#739 = CARTESIAN_POINT ( 'NONE',  ( 0.5000000000000000000, 0.5000000000000000000, 0.6249999999999995600 ) ) ;
#740 = AXIS2_PLACEMENT_3D ( 'NONE', #678, #976, #200 ) ;
#741 = DIRECTION ( 'NONE',  ( -1.000000000000000000, -0.0000000000000000000, 8.673617379884036700E-017 ) ) ;
#742 = ADVANCED_FACE ( 'NONE', ( #440 ), #218, .T. ) ;
#743 = DIRECTION ( 'NONE',  ( -0.0000000000000000000, 1.000000000000000000, -0.0000000000000000000 ) ) ;
#744 = EDGE_CURVE ( 'NONE', #242, #292, #1261, .T. ) ;
#745 = AXIS2_PLACEMENT_3D ( 'NONE', #311, #997, #511 ) ;
#746 = ORIENTED_EDGE ( 'NONE', *, *, #5, .F. ) ;
#747 = DIRECTION ( 'NONE',  ( 1.000000000000000000, 0.0000000000000000000, -8.673617379884036700E-017 ) ) ;
#748 = EDGE_CURVE ( 'NONE', #345, #966, #1001, .T. ) ;
#749 = CARTESIAN_POINT ( 'NONE',  ( -0.9499999999999999600, 0.5500000000000000400, 0.6249999999999995600 ) ) ;
#750 = ORIENTED_EDGE ( 'NONE', *, *, #20, .F. ) ;
#751 = AXIS2_PLACEMENT_3D ( 'NONE', #1251, #673, #1062 ) ;
#752 = LINE ( 'NONE', #37, #495 ) ;
#753 = CIRCLE ( 'NONE', #1225, 0.03333333333333334700 ) ;
#754 = ORIENTED_EDGE ( 'NONE', *, *, #138, .F. ) ;
#755 = DIRECTION ( 'NONE',  ( 0.0000000000000000000, 0.0000000000000000000, -1.000000000000000000 ) ) ;
#756 =( GEOMETRIC_REPRESENTATION_CONTEXT ( 3 ) GLOBAL_UNCERTAINTY_ASSIGNED_CONTEXT ( ( #369 ) ) GLOBAL_UNIT_ASSIGNED_CONTEXT ( ( #1271, #869, #978 ) ) REPRESENTATION_CONTEXT ( 'NONE', 'WORKASPACE' ) );
#757 = CIRCLE ( 'NONE', #364, 0.03333333333333334700 ) ;
#758 = FILL_AREA_STYLE ('',( #853 ) ) ;
#759 = FACE_OUTER_BOUND ( 'NONE', #65, .T. ) ;
#760 = AXIS2_PLACEMENT_3D ( 'NONE', #705, #516, #206 ) ;
#761 = ORIENTED_EDGE ( 'NONE', *, *, #312, .F. ) ;
#762 = EDGE_CURVE ( 'NONE', #795, #939, #1234, .T. ) ;
#763 = SURFACE_STYLE_USAGE ( .BOTH. , #267 ) ;
#764 = ORIENTED_EDGE ( 'NONE', *, *, #25, .T. ) ;
#765 = DIRECTION ( 'NONE',  ( 1.734723475976807300E-016, 0.0000000000000000000, -1.000000000000000000 ) ) ;
#766 = LINE ( 'NONE', #645, #234 ) ;
#767 = AXIS2_PLACEMENT_3D ( 'NONE', #623, #1020, #819 ) ;
#768 = CIRCLE ( 'NONE', #530, 0.05000000000000002400 ) ;
#769 = CARTESIAN_POINT ( 'NONE',  ( 1.000000000000000200, 0.5000000000000000000, -0.6250000000000002200 ) ) ;
#770 =( NAMED_UNIT ( * ) PLANE_ANGLE_UNIT ( ) SI_UNIT ( $, .RADIAN. ) );
#771 = ORIENTED_EDGE ( 'NONE', *, *, #892, .T. ) ;
#772 = DIRECTION ( 'NONE',  ( 0.0000000000000000000, 0.0000000000000000000, -1.000000000000000000 ) ) ;
#773 = ORIENTED_EDGE ( 'NONE', *, *, #827, .T. ) ;
#774 = ORIENTED_EDGE ( 'NONE', *, *, #703, .T. ) ;
#775 = CARTESIAN_POINT ( 'NONE',  ( -0.5000000000000000000, 0.5000000000000000000, 0.6249999999999995600 ) ) ;
#776 = MECHANICAL_DESIGN_GEOMETRIC_PRESENTATION_REPRESENTATION (  '', ( #633 ), #756 ) ;
#777 = DIRECTION ( 'NONE',  ( 0.0000000000000000000, -1.000000000000000000, 0.0000000000000000000 ) ) ;
#778 = DIRECTION ( 'NONE',  ( -1.734723475976807300E-016, 0.0000000000000000000, -1.000000000000000000 ) ) ;
#779 = EDGE_LOOP ( 'NONE', ( #606, #246, #889, #960 ) ) ;
#780 = CARTESIAN_POINT ( 'NONE',  ( -0.9499999999999999600, 0.5000000000000000000, 0.6249999999999995600 ) ) ;
#781 = DIRECTION ( 'NONE',  ( 0.0000000000000000000, -1.000000000000000000, 0.0000000000000000000 ) ) ;
#782 =( LENGTH_UNIT ( ) NAMED_UNIT ( * ) SI_UNIT ( .MILLI., .METRE. ) );
#783 = LINE ( 'NONE', #96, #90 ) ;
#784 = ADVANCED_FACE ( 'NONE', ( #263 ), #955, .T. ) ;
#785 = LINE ( 'NONE', #1007, #248 ) ;
#786 = AXIS2_PLACEMENT_3D ( 'NONE', #1039, #450, #150 ) ;
#787 = LINE ( 'NONE', #459, #158 ) ;
#788 = CARTESIAN_POINT ( 'NONE',  ( 0.9499999999999999600, 0.5500000000000000400, 0.5749999999999995100 ) ) ;
#789 = PRODUCT ( 'LQM21PN2R2MCHD', 'LQM21PN2R2MCHD', '', ( #385 ) ) ;
#790 = DIRECTION ( 'NONE',  ( 0.0000000000000000000, -0.0000000000000000000, 1.000000000000000000 ) ) ;
#791 = AXIS2_PLACEMENT_3D ( 'NONE', #867, #1065, #1161 ) ;
#792 = EDGE_CURVE ( 'NONE', #901, #998, #75, .T. ) ;
#793 = APPLICATION_CONTEXT ( 'automotive_design' ) ;
#794 = CARTESIAN_POINT ( 'NONE',  ( 0.9500000000000001800, 0.5000000000000000000, -0.6250000000000002200 ) ) ;
#795 = VERTEX_POINT ( 'NONE', #501 ) ;
#796 = SPHERICAL_SURFACE ( 'NONE', #326, 0.05000000000000000300 ) ;
#797 = DIRECTION ( 'NONE',  ( -1.734723475976807300E-016, 0.0000000000000000000, 1.000000000000000000 ) ) ;
#798 = EDGE_LOOP ( 'NONE', ( #811, #634, #510, #999 ) ) ;
#799 = DIRECTION ( 'NONE',  ( 1.000000000000000000, -0.0000000000000000000, 0.0000000000000000000 ) ) ;
#800 = ADVANCED_FACE ( 'NONE', ( #665 ), #35, .T. ) ;
#801 = DIRECTION ( 'NONE',  ( 0.0000000000000000000, -0.0000000000000000000, 1.000000000000000000 ) ) ;
#802 = ORIENTED_EDGE ( 'NONE', *, *, #897, .T. ) ;
#803 = DIRECTION ( 'NONE',  ( -1.000000000000000000, 0.0000000000000000000, 0.0000000000000000000 ) ) ;
#804 = EDGE_LOOP ( 'NONE', ( #711, #173, #569, #487 ) ) ;
#805 = CARTESIAN_POINT ( 'NONE',  ( 1.000000000000000200, 0.5500000000000000400, -0.5750000000000001800 ) ) ;
#806 = FACE_OUTER_BOUND ( 'NONE', #1087, .T. ) ;
#807 = LINE ( 'NONE', #1176, #1220 ) ;
#808 = CARTESIAN_POINT ( 'NONE',  ( -0.9500000000000001800, 0.5000000000000000000, -0.5750000000000001800 ) ) ;
#809 = EDGE_LOOP ( 'NONE', ( #649, #1100, #52 ) ) ;
#810 = DIRECTION ( 'NONE',  ( 1.000000000000000000, 0.0000000000000000000, 0.0000000000000000000 ) ) ;
#811 = ORIENTED_EDGE ( 'NONE', *, *, #222, .F. ) ;
#812 = CIRCLE ( 'NONE', #679, 0.05000000000000002400 ) ;
#813 = AXIS2_PLACEMENT_3D ( 'NONE', #452, #747, #651 ) ;
#814 = DIRECTION ( 'NONE',  ( 1.000000000000000000, -0.0000000000000000000, -0.0000000000000000000 ) ) ;
#815 = EDGE_CURVE ( 'NONE', #667, #1103, #785, .T. ) ;
#816 = ORIENTED_EDGE ( 'NONE', *, *, #154, .F. ) ;
#817 = CARTESIAN_POINT ( 'NONE',  ( 0.9499999999999999600, 0.05000000000000000300, 0.5749999999999995100 ) ) ;
#818 = CIRCLE ( 'NONE', #165, 0.03333333333333334700 ) ;
#819 = DIRECTION ( 'NONE',  ( 0.0000000000000000000, 0.0000000000000000000, 1.000000000000000000 ) ) ;
#820 = ORIENTED_EDGE ( 'NONE', *, *, #1009, .F. ) ;
#821 = LINE ( 'NONE', #1272, #563 ) ;
#822 = SPHERICAL_SURFACE ( 'NONE', #1274, 0.05000000000000000300 ) ;
#823 = EDGE_CURVE ( 'NONE', #1103, #28, #1092, .T. ) ;
#824 = VERTEX_POINT ( 'NONE', #117 ) ;
#825 = DIRECTION ( 'NONE',  ( -1.000000000000000000, 0.0000000000000000000, 8.673617379884036700E-017 ) ) ;
#826 = AXIS2_PLACEMENT_3D ( 'NONE', #873, #778, #581 ) ;
#827 = EDGE_CURVE ( 'NONE', #231, #242, #528, .T. ) ;
#828 = ORIENTED_EDGE ( 'NONE', *, *, #1164, .T. ) ;
#829 = LINE ( 'NONE', #517, #1109 ) ;
#830 = LINE ( 'NONE', #38, #1260 ) ;
#831 = DIRECTION ( 'NONE',  ( -1.734723475976807300E-016, 0.0000000000000000000, -1.000000000000000000 ) ) ;
#832 = CARTESIAN_POINT ( 'NONE',  ( 500000.0000000000600, 0.5000000000000000000, 0.6083333332899649700 ) ) ;
#833 = ORIENTED_EDGE ( 'NONE', *, *, #748, .T. ) ;
#834 = EDGE_LOOP ( 'NONE', ( #455, #1008, #1079, #255 ) ) ;
#835 = FACE_OUTER_BOUND ( 'NONE', #1194, .T. ) ;
#836 = DIRECTION ( 'NONE',  ( -1.000000000000000000, 0.0000000000000000000, 0.0000000000000000000 ) ) ;
#837 = CARTESIAN_POINT ( 'NONE',  ( 0.5000000000000002200, 0.05000000000000002400, -0.6250000000000002200 ) ) ;
#838 = VERTEX_POINT ( 'NONE', #710 ) ;
#839 = DIRECTION ( 'NONE',  ( 1.000000000000000000, 0.0000000000000000000, 1.734723475976807300E-016 ) ) ;
#840 = VECTOR ( 'NONE', #131, 1000.000000000000000 ) ;
#841 = FACE_OUTER_BOUND ( 'NONE', #525, .T. ) ;
#842 = FACE_OUTER_BOUND ( 'NONE', #210, .T. ) ;
#843 = DIRECTION ( 'NONE',  ( 0.0000000000000000000, 1.000000000000000000, 0.0000000000000000000 ) ) ;
#844 = DIRECTION ( 'NONE',  ( 1.000000000000000000, 0.0000000000000000000, -0.0000000000000000000 ) ) ;
#845 = EDGE_CURVE ( 'NONE', #444, #670, #88, .T. ) ;
#846 = AXIS2_PLACEMENT_3D ( 'NONE', #653, #61, #844 ) ;
#847 = EDGE_LOOP ( 'NONE', ( #682, #903, #716, #854, #390, #350, #139, #852 ) ) ;
#848 = AXIS2_PLACEMENT_3D ( 'NONE', #1080, #986, #498 ) ;
#849 =( LENGTH_UNIT ( ) NAMED_UNIT ( * ) SI_UNIT ( .MILLI., .METRE. ) );
#850 = VECTOR ( 'NONE', #1059, 1000.000000000000000 ) ;
#851 = ORIENTED_EDGE ( 'NONE', *, *, #729, .F. ) ;
#852 = ORIENTED_EDGE ( 'NONE', *, *, #346, .F. ) ;
#853 = FILL_AREA_STYLE_COLOUR ( '', #908 ) ;
#854 = ORIENTED_EDGE ( 'NONE', *, *, #823, .F. ) ;
#855 = VERTEX_POINT ( 'NONE', #616 ) ;
#856 = DIRECTION ( 'NONE',  ( 0.0000000000000000000, 0.0000000000000000000, -1.000000000000000000 ) ) ;
#857 = FACE_OUTER_BOUND ( 'NONE', #1212, .T. ) ;
#858 = EDGE_CURVE ( 'NONE', #502, #314, #696, .T. ) ;
#859 = PLANE ( 'NONE',  #316 ) ;
#860 = SURFACE_STYLE_FILL_AREA ( #979 ) ;
#861 = VERTEX_POINT ( 'NONE', #424 ) ;
#862 = CARTESIAN_POINT ( 'NONE',  ( -0.5000000000000001100, 0.5333333333333333300, -0.5750000000000000700 ) ) ;
#863 = ORIENTED_EDGE ( 'NONE', *, *, #916, .F. ) ;
#864 = PRESENTATION_LAYER_ASSIGNMENT (  '', '', ( #41 ) ) ;
#865 = PLANE ( 'NONE',  #894 ) ;
#866 = DIRECTION ( 'NONE',  ( -0.0000000000000000000, 0.0000000000000000000, 1.000000000000000000 ) ) ;
#867 = CARTESIAN_POINT ( 'NONE',  ( -0.5000000000000001100, 0.5000000000000000000, -0.5750000000000000700 ) ) ;
#868 = EDGE_CURVE ( 'NONE', #953, #855, #829, .T. ) ;
#869 =( NAMED_UNIT ( * ) PLANE_ANGLE_UNIT ( ) SI_UNIT ( $, .RADIAN. ) );
#870 = ORIENTED_EDGE ( 'NONE', *, *, #1138, .F. ) ;
#871 = DIRECTION ( 'NONE',  ( 1.734723475976807300E-016, 0.0000000000000000000, -1.000000000000000000 ) ) ;
#872 = CIRCLE ( 'NONE', #500, 0.05000000000000002400 ) ;
#873 = CARTESIAN_POINT ( 'NONE',  ( -0.9500000000000000700, 0.5000000000000000000, 1.647987302177967200E-016 ) ) ;
#874 = FACE_OUTER_BOUND ( 'NONE', #570, .T. ) ;
#875 = FACE_OUTER_BOUND ( 'NONE', #1192, .T. ) ;
#876 = DIRECTION ( 'NONE',  ( 1.000000000000000000, 0.0000000000000000000, -8.673617379884036700E-017 ) ) ;
#877 = EDGE_CURVE ( 'NONE', #254, #708, #571, .T. ) ;
#878 = CARTESIAN_POINT ( 'NONE',  ( 500000.0000000000600, 0.5333333333333333300, -0.5750000000433681500 ) ) ;
#879 = DIRECTION ( 'NONE',  ( -1.000000000000000000, 0.0000000000000000000, 0.0000000000000000000 ) ) ;
#880 = DIRECTION ( 'NONE',  ( -1.734723475976807300E-016, 0.0000000000000000000, -1.000000000000000000 ) ) ;
#881 = ORIENTED_EDGE ( 'NONE', *, *, #1127, .F. ) ;
#882 = CARTESIAN_POINT ( 'NONE',  ( -1.000000000000000000, 0.5500000000000000400, 0.6249999999999995600 ) ) ;
#883 = LINE ( 'NONE', #180, #97 ) ;
#884 = DIRECTION ( 'NONE',  ( 1.734723475976807300E-016, -0.0000000000000000000, -1.000000000000000000 ) ) ;
#885 = EDGE_CURVE ( 'NONE', #199, #492, #1259, .T. ) ;
#886 = ORIENTED_EDGE ( 'NONE', *, *, #133, .F. ) ;
#887 = CARTESIAN_POINT ( 'NONE',  ( 0.9500000000000001800, 0.5500000000000000400, -0.5750000000000001800 ) ) ;
#888 = CARTESIAN_POINT ( 'NONE',  ( 0.0000000000000000000, 0.0000000000000000000, 0.5749999999999995100 ) ) ;
#889 = ORIENTED_EDGE ( 'NONE', *, *, #130, .T. ) ;
#890 = DIRECTION ( 'NONE',  ( 1.000000000000000000, -0.0000000000000000000, -0.0000000000000000000 ) ) ;
#891 = ORIENTED_EDGE ( 'NONE', *, *, #468, .T. ) ;
#892 = EDGE_CURVE ( 'NONE', #998, #345, #586, .T. ) ;
#893 = VECTOR ( 'NONE', #799, 1000.000000000000000 ) ;
#894 = AXIS2_PLACEMENT_3D ( 'NONE', #379, #562, #171 ) ;
#895 = DIRECTION ( 'NONE',  ( -1.000000000000000000, 0.0000000000000000000, 0.0000000000000000000 ) ) ;
#896 =( GEOMETRIC_REPRESENTATION_CONTEXT ( 3 ) GLOBAL_UNCERTAINTY_ASSIGNED_CONTEXT ( ( #694 ) ) GLOBAL_UNIT_ASSIGNED_CONTEXT ( ( #378, #770, #296 ) ) REPRESENTATION_CONTEXT ( 'NONE', 'WORKASPACE' ) );
#897 = EDGE_CURVE ( 'NONE', #21, #644, #438, .T. ) ;
#898 = DIRECTION ( 'NONE',  ( -1.000000000000000000, -0.0000000000000000000, -0.0000000000000000000 ) ) ;
#899 = ADVANCED_BREP_SHAPE_REPRESENTATION ( 'LQM21PN2R2MCHD', ( #655, #536, #1146, #541 ), #566 ) ;
#900 = ORIENTED_EDGE ( 'NONE', *, *, #1230, .F. ) ;
#901 = VERTEX_POINT ( 'NONE', #1091 ) ;
#902 = AXIS2_PLACEMENT_3D ( 'NONE', #529, #50, #140 ) ;
#903 = ORIENTED_EDGE ( 'NONE', *, *, #1098, .F. ) ;
#904 = DIRECTION ( 'NONE',  ( -1.734723475976807300E-016, -0.0000000000000000000, -1.000000000000000000 ) ) ;
#905 = EDGE_LOOP ( 'NONE', ( #952, #828, #115, #870 ) ) ;
#906 = DIRECTION ( 'NONE',  ( 0.0000000000000000000, 1.000000000000000000, 0.0000000000000000000 ) ) ;
#907 = DIRECTION ( 'NONE',  ( 0.0000000000000000000, -1.000000000000000000, 0.0000000000000000000 ) ) ;
#908 = COLOUR_RGB ( '',0.7921568627450980000, 0.8196078431372548800, 0.9333333333333333500 ) ;
#909 = CARTESIAN_POINT ( 'NONE',  ( -0.5000000000000002200, 0.5500000000000000400, -0.6250000000000002200 ) ) ;
#910 = DIRECTION ( 'NONE',  ( 0.0000000000000000000, 0.0000000000000000000, 1.000000000000000000 ) ) ;
#911 = ADVANCED_FACE ( 'NONE', ( #293 ), #49, .T. ) ;
#912 = ADVANCED_FACE ( 'NONE', ( #1056 ), #370, .T. ) ;
#913 = ADVANCED_FACE ( 'NONE', ( #321 ), #534, .F. ) ;
#914 = CARTESIAN_POINT ( 'NONE',  ( 0.0000000000000000000, 0.5000000000000000000, 0.5749999999999995100 ) ) ;
#915 = EDGE_LOOP ( 'NONE', ( #106, #121, #707 ) ) ;
#916 = EDGE_CURVE ( 'NONE', #314, #1231, #1151, .T. ) ;
#917 = ADVANCED_FACE ( 'NONE', ( #107 ), #405, .T. ) ;
#918 = STYLED_ITEM ( 'NONE', ( #1167 ), #1146 ) ;
#919 = PLANE ( 'NONE',  #301 ) ;
#920 = AXIS2_PLACEMENT_3D ( 'NONE', #347, #647, #356 ) ;
#921 = EDGE_CURVE ( 'NONE', #266, #282, #60, .T. ) ;
#922 = ORIENTED_EDGE ( 'NONE', *, *, #141, .T. ) ;
#923 = LINE ( 'NONE', #372, #1149 ) ;
#924 = ORIENTED_EDGE ( 'NONE', *, *, #319, .F. ) ;
#925 = VECTOR ( 'NONE', #622, 1000.000000000000000 ) ;
#926 = FACE_OUTER_BOUND ( 'NONE', #915, .T. ) ;
#927 = CARTESIAN_POINT ( 'NONE',  ( 0.5000000000000002200, 0.0000000000000000000, -0.5750000000000001800 ) ) ;
#928 = PRESENTATION_STYLE_ASSIGNMENT (( #965 ) ) ;
#929 = EDGE_CURVE ( 'NONE', #1269, #118, #22, .T. ) ;
#930 = DIRECTION ( 'NONE',  ( 1.000000000000000000, 0.0000000000000000000, -8.673617379884036700E-017 ) ) ;
#931 = ORIENTED_EDGE ( 'NONE', *, *, #885, .T. ) ;
#932 = ORIENTED_EDGE ( 'NONE', *, *, #951, .T. ) ;
#933 = DIRECTION ( 'NONE',  ( -8.673617379884036700E-017, 0.0000000000000000000, -1.000000000000000000 ) ) ;
#934 = CARTESIAN_POINT ( 'NONE',  ( -0.9499999999999999600, 0.5000000000000000000, 0.5749999999999995100 ) ) ;
#935 = EDGE_LOOP ( 'NONE', ( #59, #224, #631, #1134 ) ) ;
#936 = EDGE_LOOP ( 'NONE', ( #299, #1130, #1051, #669 ) ) ;
#937 = CARTESIAN_POINT ( 'NONE',  ( -0.9500000000000001800, 0.5500000000000000400, -0.6250000000000002200 ) ) ;
#938 = AXIS2_PLACEMENT_3D ( 'NONE', #386, #575, #496 ) ;
#939 = VERTEX_POINT ( 'NONE', #1221 ) ;
#940 = ADVANCED_FACE ( 'NONE', ( #926 ), #1073, .T. ) ;
#941 = FACE_OUTER_BOUND ( 'NONE', #704, .T. ) ;
#942 = CARTESIAN_POINT ( 'NONE',  ( -0.5000000000000002200, 0.5000000000000000000, -0.5750000000000001800 ) ) ;
#943 = EDGE_CURVE ( 'NONE', #227, #74, #1124, .T. ) ;
#944 = DIRECTION ( 'NONE',  ( 1.000000000000000000, 0.0000000000000000000, 1.734723475976807300E-016 ) ) ;
#945 = EDGE_CURVE ( 'NONE', #1023, #1174, #818, .T. ) ;
#946 = CARTESIAN_POINT ( 'NONE',  ( 0.5000000000000000000, 0.5500000000000000400, 0.5749999999999994000 ) ) ;
#947 = DIRECTION ( 'NONE',  ( 0.0000000000000000000, 0.0000000000000000000, -1.000000000000000000 ) ) ;
#948 = VERTEX_POINT ( 'NONE', #927 ) ;
#949 = ORIENTED_EDGE ( 'NONE', *, *, #868, .F. ) ;
#950 = DIRECTION ( 'NONE',  ( 0.0000000000000000000, 0.0000000000000000000, 1.000000000000000000 ) ) ;
#951 = EDGE_CURVE ( 'NONE', #1041, #948, #1045, .T. ) ;
#952 = ORIENTED_EDGE ( 'NONE', *, *, #945, .F. ) ;
#953 = VERTEX_POINT ( 'NONE', #1116 ) ;
#954 = CIRCLE ( 'NONE', #1210, 0.05000000000000002400 ) ;
#955 = CYLINDRICAL_SURFACE ( 'NONE', #574, 0.04999999999999991300 ) ;
#956 = LINE ( 'NONE', #387, #110 ) ;
#957 = CARTESIAN_POINT ( 'NONE',  ( 0.4999999999881765700, 0.01666666666666667300, 0.5749999999999995100 ) ) ;
#958 = ORIENTED_EDGE ( 'NONE', *, *, #1071, .T. ) ;
#959 = AXIS2_PLACEMENT_3D ( 'NONE', #983, #181, #1179 ) ;
#960 = ORIENTED_EDGE ( 'NONE', *, *, #868, .T. ) ;
#961 = VECTOR ( 'NONE', #743, 1000.000000000000000 ) ;
#962 = DIRECTION ( 'NONE',  ( -1.000000000000000000, -0.0000000000000000000, -0.0000000000000000000 ) ) ;
#963 = DIRECTION ( 'NONE',  ( -1.000000000000000000, 0.0000000000000000000, -1.734723475976807300E-016 ) ) ;
#964 = ORIENTED_EDGE ( 'NONE', *, *, #130, .F. ) ;
#965 = SURFACE_STYLE_USAGE ( .BOTH. , #1077 ) ;
#966 = VERTEX_POINT ( 'NONE', #1114 ) ;
#967 = PRESENTATION_STYLE_ASSIGNMENT (( #184 ) ) ;
#968 = CARTESIAN_POINT ( 'NONE',  ( 1.000000000000000000, 0.5500000000000000400, 0.6249999999999995600 ) ) ;
#969 = VECTOR ( 'NONE', #30, 1000.000000000000000 ) ;
#970 = CARTESIAN_POINT ( 'NONE',  ( -0.9499999999999999600, 0.5500000000000000400, 0.5749999999999995100 ) ) ;
#971 = DIRECTION ( 'NONE',  ( 0.0000000000000000000, -1.000000000000000000, 0.0000000000000000000 ) ) ;
#972 = CARTESIAN_POINT ( 'NONE',  ( -0.5000000000000001100, 0.05000000000000002400, -0.6083333333333333900 ) ) ;
#973 = EDGE_LOOP ( 'NONE', ( #900, #55, #273, #153 ) ) ;
#974 = DIRECTION ( 'NONE',  ( -1.000000000000000000, 0.0000000000000000000, 0.0000000000000000000 ) ) ;
#975 = ORIENTED_EDGE ( 'NONE', *, *, #587, .F. ) ;
#976 = DIRECTION ( 'NONE',  ( 1.000000000000000000, -0.0000000000000000000, -1.734723475976807300E-016 ) ) ;
#977 = CIRCLE ( 'NONE', #475, 0.05000000000000002400 ) ;
#978 =( NAMED_UNIT ( * ) SI_UNIT ( $, .STERADIAN. ) SOLID_ANGLE_UNIT ( ) );
#979 = FILL_AREA_STYLE ('',( #389 ) ) ;
#980 = EDGE_CURVE ( 'NONE', #272, #502, #752, .T. ) ;
#981 = ORIENTED_EDGE ( 'NONE', *, *, #195, .T. ) ;
#982 = VECTOR ( 'NONE', #579, 1000.000000000000000 ) ;
#983 = CARTESIAN_POINT ( 'NONE',  ( 0.4999999999881765700, 0.5000000000000000000, -0.5750000000000000700 ) ) ;
#984 = LINE ( 'NONE', #167, #264 ) ;
#985 = SPHERICAL_SURFACE ( 'NONE', #1099, 0.05000000000000000300 ) ;
#986 = DIRECTION ( 'NONE',  ( 0.0000000000000000000, 0.0000000000000000000, 1.000000000000000000 ) ) ;
#987 = AXIS2_PLACEMENT_3D ( 'NONE', #583, #1262, #185 ) ;
#988 = CARTESIAN_POINT ( 'NONE',  ( 0.9500000000000000700, 0.5000000000000000000, 1.647987302177967200E-016 ) ) ;
#989 = DIRECTION ( 'NONE',  ( 1.000000000000000000, 0.0000000000000000000, 1.734723475976807300E-016 ) ) ;
#990 = ORIENTED_EDGE ( 'NONE', *, *, #1219, .F. ) ;
#991 = DIRECTION ( 'NONE',  ( 1.000000000000000000, 0.0000000000000000000, 0.0000000000000000000 ) ) ;
#992 = CARTESIAN_POINT ( 'NONE',  ( 0.9500000000000001800, 0.5000000000000000000, -0.5750000000000001800 ) ) ;
#993 = ORIENTED_EDGE ( 'NONE', *, *, #845, .T. ) ;
#994 = DIRECTION ( 'NONE',  ( -1.000000000000000000, -0.0000000000000000000, 8.673617379884036700E-017 ) ) ;
#995 = ADVANCED_FACE ( 'NONE', ( #857 ), #1121, .F. ) ;
#996 = DIRECTION ( 'NONE',  ( 0.0000000000000000000, 0.0000000000000000000, -1.000000000000000000 ) ) ;
#997 = DIRECTION ( 'NONE',  ( 0.0000000000000000000, 0.0000000000000000000, -1.000000000000000000 ) ) ;
#998 = VERTEX_POINT ( 'NONE', #722 ) ;
#999 = ORIENTED_EDGE ( 'NONE', *, *, #1013, .F. ) ;
#1000 = CIRCLE ( 'NONE', #458, 0.05000000000000002400 ) ;
#1001 = CIRCLE ( 'NONE', #443, 0.05000000000000002400 ) ;
#1002 = DIRECTION ( 'NONE',  ( 0.0000000000000000000, 0.0000000000000000000, 1.000000000000000000 ) ) ;
#1003 = ADVANCED_FACE ( 'NONE', ( #1018 ), #919, .F. ) ;
#1004 = ADVANCED_FACE ( 'NONE', ( #806 ), #985, .T. ) ;
#1005 = AXIS2_PLACEMENT_3D ( 'NONE', #99, #411, #803 ) ;
#1006 = DIRECTION ( 'NONE',  ( 1.000000000000000000, 0.0000000000000000000, -8.673617379884036700E-017 ) ) ;
#1007 = CARTESIAN_POINT ( 'NONE',  ( 0.5000000000000000000, 0.5500000000000000400, 0.5749999999999995100 ) ) ;
#1008 = ORIENTED_EDGE ( 'NONE', *, *, #195, .F. ) ;
#1009 = EDGE_CURVE ( 'NONE', #1021, #469, #1246, .T. ) ;
#1010 = ORIENTED_EDGE ( 'NONE', *, *, #83, .T. ) ;
#1011 = CARTESIAN_POINT ( 'NONE',  ( -0.9499999999999999600, 0.05000000000000000300, 0.5749999999999995100 ) ) ;
#1012 = ADVANCED_FACE ( 'NONE', ( #336 ), #145, .T. ) ;
#1013 = EDGE_CURVE ( 'NONE', #166, #199, #464, .T. ) ;
#1014 = CARTESIAN_POINT ( 'NONE',  ( -0.5000000000000001100, 0.01666666666666666600, 0.5749999999999995100 ) ) ;
#1015 = ORIENTED_EDGE ( 'NONE', *, *, #744, .T. ) ;
#1016 = DIRECTION ( 'NONE',  ( 1.000000000000000000, 0.0000000000000000000, 0.0000000000000000000 ) ) ;
#1017 = CYLINDRICAL_SURFACE ( 'NONE', #672, 0.05000000000000002400 ) ;
#1018 = FACE_OUTER_BOUND ( 'NONE', #471, .T. ) ;
#1019 = DIRECTION ( 'NONE',  ( 0.0000000000000000000, -1.000000000000000000, 0.0000000000000000000 ) ) ;
#1020 = DIRECTION ( 'NONE',  ( -1.000000000000000000, 0.0000000000000000000, 0.0000000000000000000 ) ) ;
#1021 = VERTEX_POINT ( 'NONE', #550 ) ;
#1022 = LINE ( 'NONE', #415, #1252 ) ;
#1023 = VERTEX_POINT ( 'NONE', #456 ) ;
#1024 = PRESENTATION_LAYER_ASSIGNMENT (  '', '', ( #918 ) ) ;
#1025 = DIRECTION ( 'NONE',  ( -1.734723475976807300E-016, 0.0000000000000000000, 1.000000000000000000 ) ) ;
#1026 = AXIS2_PLACEMENT_3D ( 'NONE', #882, #597, #78 ) ;
#1027 = ORIENTED_EDGE ( 'NONE', *, *, #285, .F. ) ;
#1028 = ADVANCED_FACE ( 'NONE', ( #841 ), #309, .T. ) ;
#1029 = ORIENTED_EDGE ( 'NONE', *, *, #1276, .T. ) ;
#1030 = CIRCLE ( 'NONE', #152, 0.05000000000000002400 ) ;
#1031 = CARTESIAN_POINT ( 'NONE',  ( 0.9500000000000001800, 0.5000000000000000000, -0.5750000000000001800 ) ) ;
#1032 = CARTESIAN_POINT ( 'NONE',  ( 0.9499999999999999600, 0.05000000000000002400, 0.5749999999999995100 ) ) ;
#1033 = EDGE_CURVE ( 'NONE', #901, #604, #540, .T. ) ;
#1034 = AXIS2_PLACEMENT_3D ( 'NONE', #942, #252, #950 ) ;
#1035 = DIRECTION ( 'NONE',  ( 1.000000000000000000, -0.0000000000000000000, -0.0000000000000000000 ) ) ;
#1036 = DIRECTION ( 'NONE',  ( -1.000000000000000000, -0.0000000000000000000, -0.0000000000000000000 ) ) ;
#1037 = ORIENTED_EDGE ( 'NONE', *, *, #114, .F. ) ;
#1038 = CARTESIAN_POINT ( 'NONE',  ( -0.5000000000000002200, 0.5500000000000000400, -0.5750000000000001800 ) ) ;
#1039 = CARTESIAN_POINT ( 'NONE',  ( -0.9499999999999999600, 0.5000000000000000000, 0.5749999999999995100 ) ) ;
#1040 = DIRECTION ( 'NONE',  ( -0.0000000000000000000, 1.000000000000000000, -0.0000000000000000000 ) ) ;
#1041 = VERTEX_POINT ( 'NONE', #343 ) ;
#1042 = CARTESIAN_POINT ( 'NONE',  ( 0.5000000000000000000, 0.05000000000000002400, 0.5749999999999995100 ) ) ;
#1043 = ORIENTED_EDGE ( 'NONE', *, *, #156, .T. ) ;
#1044 = LINE ( 'NONE', #127, #652 ) ;
#1045 = LINE ( 'NONE', #626, #143 ) ;
#1046 = DIRECTION ( 'NONE',  ( 0.0000000000000000000, 0.0000000000000000000, 1.000000000000000000 ) ) ;
#1047 = CYLINDRICAL_SURFACE ( 'NONE', #213, 0.03333333333333334700 ) ;
#1048 = AXIS2_PLACEMENT_3D ( 'NONE', #878, #95, #1084 ) ;
#1049 = DIRECTION ( 'NONE',  ( -1.000000000000000000, -0.0000000000000000000, -0.0000000000000000000 ) ) ;
#1050 = EDGE_CURVE ( 'NONE', #254, #939, #1030, .T. ) ;
#1051 = ORIENTED_EDGE ( 'NONE', *, *, #1050, .T. ) ;
#1052 = EDGE_LOOP ( 'NONE', ( #771, #833, #174 ) ) ;
#1053 = CARTESIAN_POINT ( 'NONE',  ( 500000.0000000000600, 0.5000000000000000000, -0.6083333333767014800 ) ) ;
#1054 = EDGE_LOOP ( 'NONE', ( #333, #48, #1268, #773 ) ) ;
#1055 = ORIENTED_EDGE ( 'NONE', *, *, #284, .T. ) ;
#1056 = FACE_OUTER_BOUND ( 'NONE', #973, .T. ) ;
#1057 = FACE_OUTER_BOUND ( 'NONE', #577, .T. ) ;
#1058 = DIRECTION ( 'NONE',  ( -1.000000000000000000, 0.0000000000000000000, 0.0000000000000000000 ) ) ;
#1059 = DIRECTION ( 'NONE',  ( -1.000000000000000000, -0.0000000000000000000, 8.673617379884036700E-017 ) ) ;
#1060 = ORIENTED_EDGE ( 'NONE', *, *, #1215, .T. ) ;
#1061 = AXIS2_PLACEMENT_3D ( 'NONE', #509, #1196, #996 ) ;
#1062 = DIRECTION ( 'NONE',  ( 0.0000000000000000000, 0.0000000000000000000, 1.000000000000000000 ) ) ;
#1063 = DIRECTION ( 'NONE',  ( 1.000000000000000000, 0.0000000000000000000, 0.0000000000000000000 ) ) ;
#1064 = ORIENTED_EDGE ( 'NONE', *, *, #331, .F. ) ;
#1065 = DIRECTION ( 'NONE',  ( 1.000000000000000000, 0.0000000000000000000, -8.673617379884036700E-017 ) ) ;
#1066 =( NAMED_UNIT ( * ) PLANE_ANGLE_UNIT ( ) SI_UNIT ( $, .RADIAN. ) );
#1067 = APPLICATION_PROTOCOL_DEFINITION ( 'draft international standard', 'automotive_design', 1998, #1173 ) ;
#1068 = PLANE ( 'NONE',  #1133 ) ;
#1069 = CARTESIAN_POINT ( 'NONE',  ( -0.9500000000000001800, 0.05000000000000002400, -0.6250000000000002200 ) ) ;
#1070 = ORIENTED_EDGE ( 'NONE', *, *, #482, .F. ) ;
#1071 = EDGE_CURVE ( 'NONE', #1166, #732, #513, .T. ) ;
#1072 = VECTOR ( 'NONE', #290, 1000.000000000000000 ) ;
#1073 = SPHERICAL_SURFACE ( 'NONE', #1247, 0.05000000000000000300 ) ;
#1074 = FACE_OUTER_BOUND ( 'NONE', #1157, .T. ) ;
#1075 = CARTESIAN_POINT ( 'NONE',  ( 0.4999999999881765700, 0.5000000000000000000, -0.6083333333333333900 ) ) ;
#1076 = CARTESIAN_POINT ( 'NONE',  ( 1.000000000000000000, 0.5000000000000000000, 0.5749999999999995100 ) ) ;
#1077 = SURFACE_SIDE_STYLE ('',( #860 ) ) ;
#1078 = EDGE_CURVE ( 'NONE', #28, #1129, #766, .T. ) ;
#1079 = ORIENTED_EDGE ( 'NONE', *, *, #921, .F. ) ;
#1080 = CARTESIAN_POINT ( 'NONE',  ( 1.000000000000000200, 0.5500000000000000400, -0.6250000000000002200 ) ) ;
#1081 = FACE_OUTER_BOUND ( 'NONE', #737, .T. ) ;
#1082 = LINE ( 'NONE', #749, #43 ) ;
#1083 = CARTESIAN_POINT ( 'NONE',  ( -0.9499999999999999600, 0.05000000000000002400, 0.5749999999999995100 ) ) ;
#1084 = DIRECTION ( 'NONE',  ( 0.0000000000000000000, -0.0000000000000000000, -1.000000000000000000 ) ) ;
#1085 = DIRECTION ( 'NONE',  ( 0.0000000000000000000, 0.0000000000000000000, 1.000000000000000000 ) ) ;
#1086 = CARTESIAN_POINT ( 'NONE',  ( -0.9500000000000001800, 0.0000000000000000000, -0.5750000000000001800 ) ) ;
#1087 = EDGE_LOOP ( 'NONE', ( #317, #399, #1037 ) ) ;
#1088 = DIRECTION ( 'NONE',  ( -1.000000000000000000, -0.0000000000000000000, 8.673617379884036700E-017 ) ) ;
#1089 = PRODUCT_DEFINITION ( 'UNKNOWN', '', #339, #1140 ) ;
#1090 = ORIENTED_EDGE ( 'NONE', *, *, #346, .T. ) ;
#1091 = CARTESIAN_POINT ( 'NONE',  ( -1.000000000000000000, 0.5000000000000000000, 0.5749999999999995100 ) ) ;
#1092 = CIRCLE ( 'NONE', #1160, 0.05000000000000002400 ) ;
#1093 = AXIS2_PLACEMENT_3D ( 'NONE', #93, #186, #974 ) ;
#1094 = CARTESIAN_POINT ( 'NONE',  ( -0.9499999999999999600, 0.05000000000000002400, 0.6249999999999995600 ) ) ;
#1095 = CYLINDRICAL_SURFACE ( 'NONE', #1061, 0.05000000000000002400 ) ;
#1096 = EDGE_CURVE ( 'NONE', #74, #1277, #274, .T. ) ;
#1097 = COLOUR_RGB ( '',0.7921568627450980000, 0.8196078431372548800, 0.9333333333333333500 ) ;
#1098 = EDGE_CURVE ( 'NONE', #855, #1041, #1000, .T. ) ;
#1099 = AXIS2_PLACEMENT_3D ( 'NONE', #64, #460, #836 ) ;
#1100 = ORIENTED_EDGE ( 'NONE', *, *, #436, .T. ) ;
#1101 = DIRECTION ( 'NONE',  ( 1.734723475976807300E-016, 0.0000000000000000000, -1.000000000000000000 ) ) ;
#1102 = VERTEX_POINT ( 'NONE', #349 ) ;
#1103 = VERTEX_POINT ( 'NONE', #946 ) ;
#1104 = DIRECTION ( 'NONE',  ( 0.0000000000000000000, 0.0000000000000000000, 1.000000000000000000 ) ) ;
#1105 = VERTEX_POINT ( 'NONE', #648 ) ;
#1106 = ADVANCED_FACE ( 'NONE', ( #1217 ), #159, .F. ) ;
#1107 = LINE ( 'NONE', #410, #334 ) ;
#1108 = DIRECTION ( 'NONE',  ( -0.0000000000000000000, -1.000000000000000000, -0.0000000000000000000 ) ) ;
#1109 = VECTOR ( 'NONE', #112, 1000.000000000000000 ) ;
#1110 = CARTESIAN_POINT ( 'NONE',  ( 1.000000000000000200, 0.05000000000000002400, -0.6250000000000002200 ) ) ;
#1111 = ADVANCED_FACE ( 'NONE', ( #422 ), #434, .T. ) ;
#1112 = ADVANCED_FACE ( 'NONE', ( #738 ), #1249, .F. ) ;
#1113 = DIRECTION ( 'NONE',  ( -1.000000000000000000, 0.0000000000000000000, 0.0000000000000000000 ) ) ;
#1114 = CARTESIAN_POINT ( 'NONE',  ( -0.9500000000000001800, 0.5000000000000000000, -0.6250000000000002200 ) ) ;
#1115 = ORIENTED_EDGE ( 'NONE', *, *, #24, .F. ) ;
#1116 = CARTESIAN_POINT ( 'NONE',  ( 0.9499999999999999600, 0.05000000000000002400, 0.6249999999999995600 ) ) ;
#1117 = LINE ( 'NONE', #344, #1254 ) ;
#1118 = AXIS2_PLACEMENT_3D ( 'NONE', #193, #2, #790 ) ;
#1119 = EDGE_CURVE ( 'NONE', #254, #266, #923, .T. ) ;
#1120 = ORIENTED_EDGE ( 'NONE', *, *, #524, .F. ) ;
#1121 = PLANE ( 'NONE',  #238 ) ;
#1122 = VECTOR ( 'NONE', #880, 1000.000000000000000 ) ;
#1123 = ORIENTED_EDGE ( 'NONE', *, *, #1071, .F. ) ;
#1124 = LINE ( 'NONE', #636, #725 ) ;
#1125 = VECTOR ( 'NONE', #1088, 1000.000000000000000 ) ;
#1126 = VECTOR ( 'NONE', #600, 1000.000000000000000 ) ;
#1127 = EDGE_CURVE ( 'NONE', #1231, #948, #1232, .T. ) ;
#1128 = DIRECTION ( 'NONE',  ( -1.734723475976807300E-016, 0.0000000000000000000, 1.000000000000000000 ) ) ;
#1129 = VERTEX_POINT ( 'NONE', #1152 ) ;
#1130 = ORIENTED_EDGE ( 'NONE', *, *, #1162, .T. ) ;
#1131 = ORIENTED_EDGE ( 'NONE', *, *, #1183, .T. ) ;
#1132 = DIRECTION ( 'NONE',  ( 1.000000000000000000, 0.0000000000000000000, 0.0000000000000000000 ) ) ;
#1133 = AXIS2_PLACEMENT_3D ( 'NONE', #295, #963, #871 ) ;
#1134 = ORIENTED_EDGE ( 'NONE', *, *, #1215, .F. ) ;
#1135 = VECTOR ( 'NONE', #366, 1000.000000000000000 ) ;
#1136 = CARTESIAN_POINT ( 'NONE',  ( 0.0000000000000000000, 0.5500000000000000400, 0.0000000000000000000 ) ) ;
#1137 = CARTESIAN_POINT ( 'NONE',  ( -0.5000000000000002200, 0.5500000000000000400, -0.6250000000000002200 ) ) ;
#1138 = EDGE_CURVE ( 'NONE', #1174, #1102, #365, .T. ) ;
#1139 = FACE_OUTER_BOUND ( 'NONE', #615, .T. ) ;
#1140 = PRODUCT_DEFINITION_CONTEXT ( 'detailed design', #1173, 'design' ) ;
#1141 = DIRECTION ( 'NONE',  ( 1.000000000000000000, 0.0000000000000000000, 0.0000000000000000000 ) ) ;
#1142 = ORIENTED_EDGE ( 'NONE', *, *, #897, .F. ) ;
#1143 = LINE ( 'NONE', #677, #628 ) ;
#1144 = VERTEX_POINT ( 'NONE', #473 ) ;
#1145 = CARTESIAN_POINT ( 'NONE',  ( 0.9499999999999999600, 0.5000000000000000000, 0.5749999999999995100 ) ) ;
#1146 = MANIFOLD_SOLID_BREP ( 'Boss-Extrude2', #19 ) ;
#1147 = CARTESIAN_POINT ( 'NONE',  ( 500000.0000000000600, 0.5333333333333333300, 0.5749999999566313100 ) ) ;
#1148 = ORIENTED_EDGE ( 'NONE', *, *, #141, .F. ) ;
#1149 = VECTOR ( 'NONE', #271, 1000.000000000000000 ) ;
#1150 = ORIENTED_EDGE ( 'NONE', *, *, #154, .T. ) ;
#1151 = CIRCLE ( 'NONE', #767, 0.05000000000000002400 ) ;
#1152 = CARTESIAN_POINT ( 'NONE',  ( 0.9499999999999999600, 0.5000000000000000000, 0.6249999999999995600 ) ) ;
#1153 = LINE ( 'NONE', #406, #1187 ) ;
#1154 =( GEOMETRIC_REPRESENTATION_CONTEXT ( 3 ) GLOBAL_UNCERTAINTY_ASSIGNED_CONTEXT ( ( #467 ) ) GLOBAL_UNIT_ASSIGNED_CONTEXT ( ( #849, #280, #476 ) ) REPRESENTATION_CONTEXT ( 'NONE', 'WORKASPACE' ) );
#1155 = AXIS2_PLACEMENT_3D ( 'NONE', #304, #116, #991 ) ;
#1156 = CARTESIAN_POINT ( 'NONE',  ( 500000.0000000000600, 0.05000000000000002400, 0.6083333332899649700 ) ) ;
#1157 = EDGE_LOOP ( 'NONE', ( #1090, #736, #53, #376 ) ) ;
#1158 = ORIENTED_EDGE ( 'NONE', *, *, #297, .F. ) ;
#1159 = DIRECTION ( 'NONE',  ( -1.000000000000000000, 0.0000000000000000000, 0.0000000000000000000 ) ) ;
#1160 = AXIS2_PLACEMENT_3D ( 'NONE', #1188, #128, #520 ) ;
#1161 = DIRECTION ( 'NONE',  ( 0.0000000000000000000, 0.0000000000000000000, -1.000000000000000000 ) ) ;
#1162 = EDGE_CURVE ( 'NONE', #617, #254, #1279, .T. ) ;
#1163 =( LENGTH_UNIT ( ) NAMED_UNIT ( * ) SI_UNIT ( .MILLI., .METRE. ) );
#1164 = EDGE_CURVE ( 'NONE', #1023, #492, #232, .T. ) ;
#1165 = DIRECTION ( 'NONE',  ( 0.0000000000000000000, -1.000000000000000000, 0.0000000000000000000 ) ) ;
#1166 = VERTEX_POINT ( 'NONE', #1256 ) ;
#1167 = PRESENTATION_STYLE_ASSIGNMENT (( #763 ) ) ;
#1168 = CARTESIAN_POINT ( 'NONE',  ( -1.000000000000000200, 0.05000000000000002400, -0.5750000000000001800 ) ) ;
#1169 = CYLINDRICAL_SURFACE ( 'NONE', #259, 0.05000000000000002400 ) ;
#1170 = FACE_OUTER_BOUND ( 'NONE', #1054, .T. ) ;
#1171 = VECTOR ( 'NONE', #102, 1000.000000000000000 ) ;
#1172 = DIRECTION ( 'NONE',  ( 0.0000000000000000000, -1.000000000000000000, -0.0000000000000000000 ) ) ;
#1173 = APPLICATION_CONTEXT ( 'automotive_design' ) ;
#1174 = VERTEX_POINT ( 'NONE', #957 ) ;
#1175 = CARTESIAN_POINT ( 'NONE',  ( -0.5000000000000002200, 0.5500000000000000400, -0.6250000000000002200 ) ) ;
#1176 = CARTESIAN_POINT ( 'NONE',  ( 0.4999999999881765700, 0.05000000000000003100, -0.6083333333333333900 ) ) ;
#1177 = ADVANCED_FACE ( 'NONE', ( #462 ), #859, .F. ) ;
#1178 = CARTESIAN_POINT ( 'NONE',  ( 0.0000000000000000000, 0.5000000000000000000, 0.5749999999999995100 ) ) ;
#1179 = DIRECTION ( 'NONE',  ( 0.0000000000000000000, 0.0000000000000000000, -1.000000000000000000 ) ) ;
#1180 = ORIENTED_EDGE ( 'NONE', *, *, #699, .T. ) ;
#1181 = CARTESIAN_POINT ( 'NONE',  ( 0.0000000000000000000, 0.0000000000000000000, 0.5749999999999995100 ) ) ;
#1182 = VECTOR ( 'NONE', #483, 1000.000000000000000 ) ;
#1183 = EDGE_CURVE ( 'NONE', #732, #670, #126, .T. ) ;
#1184 = EDGE_LOOP ( 'NONE', ( #863, #1029, #886 ) ) ;
#1185 = DIRECTION ( 'NONE',  ( 0.0000000000000000000, 0.0000000000000000000, -1.000000000000000000 ) ) ;
#1186 = DIRECTION ( 'NONE',  ( 0.0000000000000000000, 0.0000000000000000000, -1.000000000000000000 ) ) ;
#1187 = VECTOR ( 'NONE', #592, 1000.000000000000000 ) ;
#1188 = CARTESIAN_POINT ( 'NONE',  ( 0.5000000000000000000, 0.5000000000000000000, 0.5749999999999995100 ) ) ;
#1189 = ADVANCED_FACE ( 'NONE', ( #1243 ), #584, .T. ) ;
#1190 = CARTESIAN_POINT ( 'NONE',  ( 0.9500000000000001800, 0.0000000000000000000, -0.5750000000000001800 ) ) ;
#1191 = DIRECTION ( 'NONE',  ( 0.0000000000000000000, 1.000000000000000000, 0.0000000000000000000 ) ) ;
#1192 = EDGE_LOOP ( 'NONE', ( #1043, #142, #216, #656 ) ) ;
#1193 = DIRECTION ( 'NONE',  ( 0.0000000000000000000, 0.0000000000000000000, 1.000000000000000000 ) ) ;
#1194 = EDGE_LOOP ( 'NONE', ( #851, #1010, #414, #160 ) ) ;
#1195 = CIRCLE ( 'NONE', #348, 0.05000000000000002400 ) ;
#1196 = DIRECTION ( 'NONE',  ( 1.000000000000000000, -0.0000000000000000000, 0.0000000000000000000 ) ) ;
#1197 = DIRECTION ( 'NONE',  ( -0.0000000000000000000, -0.0000000000000000000, -1.000000000000000000 ) ) ;
#1198 = CARTESIAN_POINT ( 'NONE',  ( -0.9499999999999999600, 0.05000000000000002400, 0.5749999999999995100 ) ) ;
#1199 = ORIENTED_EDGE ( 'NONE', *, *, #1119, .T. ) ;
#1200 = PLANE ( 'NONE',  #56 ) ;
#1201 = EDGE_LOOP ( 'NONE', ( #764, #750, #329, #661 ) ) ;
#1202 = DIRECTION ( 'NONE',  ( 1.000000000000000000, 0.0000000000000000000, 0.0000000000000000000 ) ) ;
#1203 = FACE_OUTER_BOUND ( 'NONE', #9, .T. ) ;
#1204 = AXIS2_PLACEMENT_3D ( 'NONE', #397, #499, #413 ) ;
#1205 = LINE ( 'NONE', #1181, #620 ) ;
#1206 = AXIS2_PLACEMENT_3D ( 'NONE', #992, #906, #1002 ) ;
#1207 = ORIENTED_EDGE ( 'NONE', *, *, #217, .F. ) ;
#1208 = DIRECTION ( 'NONE',  ( -1.734723475976807300E-016, -0.0000000000000000000, -1.000000000000000000 ) ) ;
#1209 = ORIENTED_EDGE ( 'NONE', *, *, #815, .F. ) ;
#1210 = AXIS2_PLACEMENT_3D ( 'NONE', #1198, #907, #755 ) ;
#1211 = CARTESIAN_POINT ( 'NONE',  ( 1.000000000000000200, 0.5000000000000000000, -0.5750000000000001800 ) ) ;
#1212 = EDGE_LOOP ( 'NONE', ( #816, #614, #931, #179 ) ) ;
#1213 = ADVANCED_FACE ( 'NONE', ( #1203 ), #865, .T. ) ;
#1214 = CIRCLE ( 'NONE', #416, 0.05000000000000002400 ) ;
#1215 = EDGE_CURVE ( 'NONE', #689, #401, #723, .T. ) ;
#1216 = CIRCLE ( 'NONE', #1204, 0.05000000000000002400 ) ;
#1217 = FACE_OUTER_BOUND ( 'NONE', #1242, .T. ) ;
#1218 = DIRECTION ( 'NONE',  ( -1.000000000000000000, -0.0000000000000000000, 8.673617379884036700E-017 ) ) ;
#1219 = EDGE_CURVE ( 'NONE', #939, #708, #1214, .T. ) ;
#1220 = VECTOR ( 'NONE', #192, 1000.000000000000000 ) ;
#1221 = CARTESIAN_POINT ( 'NONE',  ( 0.9500000000000001800, 0.5500000000000000400, -0.5750000000000001800 ) ) ;
#1222 = EDGE_LOOP ( 'NONE', ( #435, #1253, #546, #375 ) ) ;
#1223 = ORIENTED_EDGE ( 'NONE', *, *, #877, .T. ) ;
#1224 = ORIENTED_EDGE ( 'NONE', *, *, #151, .F. ) ;
#1225 = AXIS2_PLACEMENT_3D ( 'NONE', #71, #876, #856 ) ;
#1226 = EDGE_CURVE ( 'NONE', #1238, #838, #650, .T. ) ;
#1227 = ORIENTED_EDGE ( 'NONE', *, *, #660, .F. ) ;
#1228 = DIRECTION ( 'NONE',  ( 0.0000000000000000000, -1.000000000000000000, 0.0000000000000000000 ) ) ;
#1229 = DIRECTION ( 'NONE',  ( -0.0000000000000000000, 1.000000000000000000, -0.0000000000000000000 ) ) ;
#1230 = EDGE_CURVE ( 'NONE', #227, #1105, #201, .T. ) ;
#1231 = VERTEX_POINT ( 'NONE', #1190 ) ;
#1232 = LINE ( 'NONE', #77, #384 ) ;
#1233 = AXIS2_PLACEMENT_3D ( 'NONE', #598, #381, #591 ) ;
#1234 = LINE ( 'NONE', #805, #969 ) ;
#1235 = EDGE_CURVE ( 'NONE', #242, #1269, #400, .T. ) ;
#1236 = DIRECTION ( 'NONE',  ( 0.0000000000000000000, 2.168404344971007700E-015, 1.000000000000000000 ) ) ;
#1237 = ORIENTED_EDGE ( 'NONE', *, *, #403, .F. ) ;
#1238 = VERTEX_POINT ( 'NONE', #700 ) ;
#1239 = CIRCLE ( 'NONE', #938, 0.05000000000000002400 ) ;
#1240 = DIRECTION ( 'NONE',  ( 0.0000000000000000000, 0.0000000000000000000, 1.000000000000000000 ) ) ;
#1241 = DIRECTION ( 'NONE',  ( -0.0000000000000000000, 0.0000000000000000000, -1.000000000000000000 ) ) ;
#1242 = EDGE_LOOP ( 'NONE', ( #627, #79, #507, #427 ) ) ;
#1243 = FACE_OUTER_BOUND ( 'NONE', #1184, .T. ) ;
#1244 = DIRECTION ( 'NONE',  ( -1.000000000000000000, -0.0000000000000000000, 8.673617379884036700E-017 ) ) ;
#1245 = VECTOR ( 'NONE', #522, 1000.000000000000000 ) ;
#1246 = CIRCLE ( 'NONE', #1034, 0.05000000000000002400 ) ;
#1247 = AXIS2_PLACEMENT_3D ( 'NONE', #640, #734, #433 ) ;
#1248 = AXIS2_PLACEMENT_3D ( 'NONE', #1265, #866, #1063 ) ;
#1249 = PLANE ( 'NONE',  #751 ) ;
#1250 = ORIENTED_EDGE ( 'NONE', *, *, #568, .F. ) ;
#1251 = CARTESIAN_POINT ( 'NONE',  ( 0.0000000000000000000, 0.0000000000000000000, 0.0000000000000000000 ) ) ;
#1252 = VECTOR ( 'NONE', #203, 1000.000000000000000 ) ;
#1253 = ORIENTED_EDGE ( 'NONE', *, *, #367, .T. ) ;
#1254 = VECTOR ( 'NONE', #1036, 1000.000000000000000 ) ;
#1255 = EDGE_CURVE ( 'NONE', #644, #292, #1107, .T. ) ;
#1256 = CARTESIAN_POINT ( 'NONE',  ( -0.5000000000000000000, 0.5500000000000000400, 0.5749999999999994000 ) ) ;
#1257 = ORIENTED_EDGE ( 'NONE', *, *, #1033, .F. ) ;
#1258 = ORIENTED_EDGE ( 'NONE', *, *, #1078, .F. ) ;
#1259 = LINE ( 'NONE', #302, #558 ) ;
#1260 = VECTOR ( 'NONE', #1208, 1000.000000000000000 ) ;
#1261 = CIRCLE ( 'NONE', #373, 0.05000000000000002400 ) ;
#1262 = DIRECTION ( 'NONE',  ( -1.000000000000000000, -0.0000000000000000000, -0.0000000000000000000 ) ) ;
#1263 = DIRECTION ( 'NONE',  ( -1.000000000000000000, 0.0000000000000000000, 0.0000000000000000000 ) ) ;
#1264 = AXIS2_PLACEMENT_3D ( 'NONE', #407, #307, #1085 ) ;
#1265 = CARTESIAN_POINT ( 'NONE',  ( 0.9500000000000001800, 0.05000000000000000300, -0.5750000000000001800 ) ) ;
#1266 = ORIENTED_EDGE ( 'NONE', *, *, #58, .F. ) ;
#1267 = CARTESIAN_POINT ( 'NONE',  ( 0.5000000000000002200, 0.5500000000000000400, -0.6250000000000002200 ) ) ;
#1268 = ORIENTED_EDGE ( 'NONE', *, *, #279, .F. ) ;
#1269 = VERTEX_POINT ( 'NONE', #1086 ) ;
#1270 = EDGE_CURVE ( 'NONE', #939, #667, #619, .T. ) ;
#1271 =( LENGTH_UNIT ( ) NAMED_UNIT ( * ) SI_UNIT ( .MILLI., .METRE. ) );
#1272 = CARTESIAN_POINT ( 'NONE',  ( 0.4999999999881765700, 0.5000000000000000000, 0.6083333333333330600 ) ) ;
#1273 = PLANE ( 'NONE',  #1118 ) ;
#1274 = AXIS2_PLACEMENT_3D ( 'NONE', #556, #51, #46 ) ;
#1275 = DIRECTION ( 'NONE',  ( 1.000000000000000000, 0.0000000000000000000, 0.0000000000000000000 ) ) ;
#1276 = EDGE_CURVE ( 'NONE', #314, #266, #872, .T. ) ;
#1277 = VERTEX_POINT ( 'NONE', #972 ) ;
#1278 = CARTESIAN_POINT ( 'NONE',  ( 0.9500000000000000700, 0.0000000000000000000, 1.647987302177967200E-016 ) ) ;
#1279 = LINE ( 'NONE', #769, #318 ) ;
#1280 = LINE ( 'NONE', #1014, #404 ) ;
ENDSEC;
END-ISO-10303-21;
